<svg width="20" height="18" viewBox="0 0 20 18" fill="none" xmlns="http://www.w3.org/2000/svg">
<path d="M5.16665 12.7871H5.06665V11.323C5.0665 11.2387 5.10126 11.1581 5.16269 11.1003C5.21958 11.0419 5.2979 11.0093 5.37947 11.0102C5.55223 11.0102 5.69229 11.1503 5.69229 11.323V11.9487V12.7871H5.59229M5.16665 12.7871V12.8871H5.59229V12.7871M5.16665 12.7871H5.59229M5.16665 12.7871L5.16665 11.323L5.16665 11.3229C5.16655 11.2661 5.18992 11.212 5.23118 11.1732L5.23125 11.1732L5.23435 11.1701C5.27216 11.1312 5.32417 11.1096 5.37832 11.1102H5.37947C5.497 11.1102 5.59229 11.2055 5.59229 11.323V11.9487V12.7871M15.6127 11.1059C15.5548 11.0446 15.4741 11.0099 15.3897 11.0102C15.2169 11.0102 15.0769 11.1503 15.0769 11.323V12.7871M15.6127 11.1059L15.0769 12.7871M15.6127 11.1059C15.6708 11.1632 15.7031 11.2415 15.7025 11.323L15.6127 11.1059ZM15.0769 12.7871V12.8871H15.1769V12.7871H15.0769ZM18.8307 4.02819H15.4897V3.18973V3.18962C15.4883 1.92571 14.464 0.901431 13.2001 0.9H13.2L7.56921 0.9L7.56909 0.9C6.30518 0.901431 5.2809 1.92571 5.27947 3.18962V3.18973V4.02819H1.93846C1.36493 4.02819 0.9 4.49312 0.9 5.06665L0.899999 11.323L0.900001 11.3235C0.901719 11.7379 1.14935 12.1092 1.52564 12.272V16.3281C1.52564 16.9017 1.99057 17.3666 2.5641 17.3666H18.2051C18.7786 17.3666 19.2435 16.9017 19.2435 16.3281V12.272C19.6198 12.1092 19.8674 11.7379 19.8692 11.3235V11.323V5.06665C19.8692 4.49312 19.4042 4.02819 18.8307 4.02819ZM14.6641 3.18985V4.02819H14.2272L14.2384 3.19107L14.2384 3.19107L14.2384 3.18954C14.2373 2.61659 13.7731 2.1524 13.2002 2.15128H13.2L7.55763 2.15128L7.55744 2.15128C6.98449 2.1524 6.5203 2.61659 6.51917 3.18954V3.18973L6.51917 3.19286L6.51918 3.19377L6.52671 4.02819H6.10511V3.18985C6.10606 2.38164 6.76103 1.72664 7.56923 1.72564H13.1999C14.0081 1.72664 14.6631 2.38164 14.6641 3.18985ZM15.6025 12.7871V12.8871H15.7025V12.7871H15.6025ZM4.34101 11.5359H1.93846C1.82093 11.5359 1.72564 11.4406 1.72564 11.323V5.06665C1.72564 4.94912 1.82093 4.85383 1.93846 4.85383H18.8307C18.9482 4.85383 19.0435 4.94912 19.0435 5.06665V11.323C19.0435 11.4406 18.9482 11.5359 18.8307 11.5359H16.4281L16.4282 11.323L16.4281 11.3226C16.4257 10.7503 15.9624 10.287 15.3901 10.2846H15.3897C14.8162 10.2846 14.3512 10.7495 14.3512 11.323V11.5359H6.41793V11.323C6.41793 10.7495 5.953 10.2846 5.37947 10.2846L5.37891 10.2846C4.80703 10.2878 4.34421 10.7506 4.34101 11.3225V11.323V11.5359ZM13.2 2.97692C13.316 2.97692 13.4105 3.06972 13.4128 3.18552L13.4016 4.02819H7.35223L7.34356 3.18973C7.34356 3.18958 7.34356 3.18942 7.34356 3.18926C7.34382 3.07195 7.43901 2.97692 7.55638 2.97692H13.2ZM18.4179 16.3281C18.4179 16.4457 18.3226 16.541 18.2051 16.541H2.5641C2.44657 16.541 2.35128 16.4457 2.35128 16.3281V12.3615H4.34101V13.2C4.34101 13.4279 4.52585 13.6128 4.75383 13.6128H6.00511C6.23309 13.6128 6.41793 13.4279 6.41793 13.2V12.3615H14.3512V13.2C14.3512 13.4279 14.5361 13.6128 14.7641 13.6128H16.0153C16.2433 13.6128 16.4281 13.4279 16.4281 13.2V12.3615H18.4179V16.3281Z" fill="#235F77" stroke="#235F77" stroke-width="0.2"/>
</svg>
