<svg width="92" height="92" viewBox="0 0 92 92" fill="none" xmlns="http://www.w3.org/2000/svg">
<circle cx="46" cy="46" r="46" fill="#FFEBC0"/>
<path d="M46.4753 42.4896C45.7317 42.4896 45.1289 43.0924 45.1289 43.836V52.5062C45.1289 53.2498 45.7317 53.8526 46.4753 53.8526C47.2189 53.8526 47.8217 53.2497 47.8217 52.5061V43.836C47.8217 43.0924 47.2189 42.4896 46.4753 42.4896Z" fill="#FFB000"/>
<path d="M46.4744 40.8415C47.4782 40.8415 48.292 40.0277 48.292 39.0238C48.292 38.02 47.4782 37.2062 46.4744 37.2062C45.4706 37.2062 44.6568 38.02 44.6568 39.0238C44.6568 40.0277 45.4706 40.8415 46.4744 40.8415Z" fill="#FFB000"/>
<circle cx="46.5" cy="45.5" r="22" stroke="#FFB000" stroke-width="3"/>
</svg>
