<svg width="69" height="69" viewBox="0 0 69 69" fill="none" xmlns="http://www.w3.org/2000/svg">
<path d="M16.9801 22.3711V28.581C15.6242 29.0532 14.5077 30.0463 13.8801 31.3888L11.2168 37.0991C9.49926 40.7847 10.3287 45.1399 13.2813 47.9364L21.0231 55.2664V67.6523C21.0231 68.3967 21.6265 69 22.3707 69H28.4352C29.1794 69 29.7828 68.3967 29.7828 67.6523C29.7828 66.908 29.1794 66.3047 28.4352 66.3047H23.7184V54.6865C23.7184 54.3163 23.5661 53.9624 23.2972 53.708L15.1348 45.9793C13.0257 43.9817 12.433 40.8705 13.6599 38.238L16.3223 32.5292C16.9685 31.147 18.5834 30.6072 19.905 31.2243L33.218 37.4316C31.3522 39.9513 27.9045 40.9026 24.9551 39.5278L21.2908 37.819C20.6162 37.5042 19.8144 37.7964 19.4999 38.4707C19.1853 39.1452 19.4772 39.9471 20.1517 40.2618L23.8161 41.9707C25.3182 42.671 27.0059 42.9827 28.7489 42.8039C31.5926 45.8761 33.152 49.8463 33.152 54.0572C33.152 54.8015 33.7555 55.4048 34.4996 55.4048C35.2438 55.4048 35.8473 54.8015 35.8473 54.0572C35.8473 49.6326 34.3661 45.4366 31.6402 42.033C33.6472 41.1402 35.3539 39.5487 36.3529 37.4065C36.3535 37.4054 36.3537 37.4043 36.3543 37.4033C37.0237 37.7018 37.7637 37.8691 38.5426 37.8691C39.7458 37.8691 40.8581 37.4727 41.7561 36.8037C42.6215 38.6268 44.48 39.8906 46.6285 39.8906C47.4586 39.8906 48.2452 39.7017 48.9481 39.3652C48.5764 41.7845 47.9743 43.9905 47.3501 46.2734C46.3329 49.9936 45.2809 53.8405 45.2809 58.7578V66.3047H40.5641C39.8199 66.3047 39.2164 66.908 39.2164 67.6523C39.2164 68.3967 39.8199 69 40.5641 69H46.6285C47.3727 69 47.9762 68.3967 47.9762 67.6523V58.7578C47.9762 54.2025 48.9349 50.6963 49.95 46.9844C50.9672 43.2642 52.0192 39.4173 52.0192 34.5V26.4141C52.0192 23.4417 49.6009 21.0234 46.6285 21.0234C45.4253 21.0234 44.313 21.4199 43.4151 22.0889C42.5496 20.2658 40.6912 19.002 38.5426 19.002C37.3394 19.002 36.2271 19.3984 35.3291 20.0674C34.4636 18.2443 32.6052 16.9805 30.4567 16.9805C28.8478 16.9805 27.4022 17.6899 26.4137 18.8113C25.4252 17.6899 23.9796 16.9805 22.3707 16.9805C19.3983 16.9805 16.9801 19.3987 16.9801 22.3711ZM43.9332 26.4141C43.9332 24.9279 45.1423 23.7188 46.6285 23.7188C48.1147 23.7188 49.3238 24.9279 49.3238 26.4141V34.5C49.3238 35.9862 48.1147 37.1953 46.6285 37.1953C45.1423 37.1953 43.9332 35.9862 43.9332 34.5V26.4141ZM35.8473 24.3926C35.8473 22.9064 37.0564 21.6973 38.5426 21.6973C40.0288 21.6973 41.2379 22.9064 41.2379 24.3926V32.4785C41.2379 33.9647 40.0288 35.1738 38.5426 35.1738C37.0564 35.1738 35.8473 33.9647 35.8473 32.4785V24.3926ZM27.7613 22.3711C27.7613 20.8849 28.9705 19.6758 30.4567 19.6758C31.9429 19.6758 33.152 20.8849 33.152 22.3711V32.4785C33.152 33.2461 33.3144 33.9763 33.6049 34.638L27.7613 31.9134V22.3711ZM19.6754 22.3711C19.6754 20.8849 20.8845 19.6758 22.3707 19.6758C23.8569 19.6758 25.066 20.8849 25.066 22.3711V30.6568L21.0448 28.7819C20.607 28.5775 20.1463 28.4346 19.6754 28.3537V22.3711Z" fill="#585858"/>
<path d="M35.8477 6.19922V1.34766C35.8477 0.603346 35.2442 0 34.5 0C33.7558 0 33.1523 0.603346 33.1523 1.34766V6.19922C33.1523 6.94353 33.7558 7.54688 34.5 7.54688C35.2442 7.54688 35.8477 6.94353 35.8477 6.19922Z" fill="#E76F51"/>
<path d="M23.0446 10.6169C23.6892 10.2448 23.9102 9.42074 23.5381 8.77602L21.5166 5.27346C21.1446 4.62874 20.3203 4.40772 19.6757 4.77981C19.0312 5.1519 18.8101 5.97599 19.1822 6.62071L21.2037 10.1233C21.5746 10.766 22.3983 10.9901 23.0446 10.6169Z" fill="#E76F51"/>
<path d="M12.1447 17.161L8.64214 15.1395C7.99688 14.7673 7.17306 14.9884 6.80124 15.6331C6.42915 16.2777 6.65017 17.1019 7.29475 17.474L10.7973 19.4955C11.4392 19.8659 12.2646 19.6494 12.6382 19.0019C13.0103 18.3572 12.7893 17.5331 12.1447 17.161Z" fill="#E76F51"/>
<path d="M47.7959 10.1233L49.8174 6.62074C50.1895 5.97615 49.9685 5.15193 49.3239 4.77984C48.6788 4.40762 47.8551 4.6289 47.483 5.27349L45.4615 8.77604C45.0894 9.42063 45.3105 10.2449 45.955 10.6169C46.5971 10.9871 47.4222 10.7707 47.7959 10.1233Z" fill="#E76F51"/>
<path d="M58.2017 19.4952L61.7042 17.4738C62.3488 17.1017 62.5698 16.2776 62.1978 15.6329C61.8255 14.9883 61.0016 14.767 60.3569 15.1392L56.8543 17.1607C56.2097 17.5328 55.9887 18.3569 56.3608 19.0016C56.7317 19.6443 57.5553 19.8684 58.2017 19.4952Z" fill="#E76F51"/>
<path d="M34.5 69C35.2443 69 35.8477 68.3966 35.8477 67.6523C35.8477 66.9081 35.2443 66.3047 34.5 66.3047C33.7557 66.3047 33.1523 66.9081 33.1523 67.6523C33.1523 68.3966 33.7557 69 34.5 69Z" fill="#7349AC"/>
</svg>
