<svg width="72" height="80" viewBox="0 0 72 80" fill="none" xmlns="http://www.w3.org/2000/svg">
<path d="M69.9984 38.4376H58.434V1.56262C58.434 0.930747 58.0532 0.360903 57.4695 0.119028C56.8854 -0.123004 56.2134 0.0110589 55.7667 0.457622L51.3402 4.88387L46.9141 0.457778C46.304 -0.152379 45.3146 -0.152379 44.7043 0.457778L40.278 4.88403L35.8523 0.457778C35.2421 -0.152379 34.2527 -0.152379 33.6424 0.457778L29.2162 4.88403L24.7898 0.457778C24.1796 -0.152379 23.1902 -0.152379 22.5801 0.457778L18.1538 4.88403L13.7279 0.457778C13.1177 -0.152379 12.1283 -0.152379 11.518 0.457778L7.09178 4.88403L2.66568 0.457778C2.05927 -0.148629 1.07849 -0.151754 0.466774 0.449184C0.145524 0.764965 -0.0102578 1.18575 0.000523423 1.60372V71.8753C0.000523423 76.3553 3.64521 80 8.12522 80H63.434C63.4343 80 63.4345 80 63.4348 80C63.4352 80 63.4357 80 63.4362 80C67.9162 80 71.5609 76.3553 71.5609 71.8753V40C71.5609 39.137 70.8613 38.4376 69.9984 38.4376ZM8.12522 76.875C5.36818 76.875 3.12537 74.632 3.12537 71.8752V5.33684L5.98693 8.19841C6.59709 8.80856 7.58646 8.80856 8.19678 8.19841L12.623 3.77215L17.0493 8.19841C17.6594 8.80856 18.6488 8.80856 19.2591 8.19841L23.6854 3.77215L28.1118 8.19841C28.7219 8.80856 29.7113 8.80856 30.3215 8.19841L34.7477 3.77215L39.174 8.19841C39.7841 8.80856 40.7735 8.80856 41.3838 8.19841L45.8101 3.77215L50.2363 8.19841C50.8466 8.80856 51.836 8.80856 52.446 8.19841L55.3099 5.33465V40C55.3099 40.0142 55.3117 40.0281 55.3121 40.0423V71.8752C55.3121 73.7598 55.959 75.4952 57.0398 76.875H8.12522ZM68.4359 71.8752C68.4359 74.632 66.1929 76.875 63.436 76.875C60.6792 76.875 58.4362 74.632 58.4362 71.8752V41.5625H68.4359V71.8752Z" fill="#585858"/>
<path d="M44.9142 24.8212H41.8689C41.0059 24.8212 40.3064 25.5207 40.3064 26.3837C40.3064 27.2466 41.0059 27.9462 41.8689 27.9462H44.9142C45.7771 27.9462 46.4767 27.2466 46.4767 26.3837C46.4767 25.5207 45.7771 24.8212 44.9142 24.8212Z" fill="#E76F51"/>
<path d="M16.5655 24.8212H13.5202C12.6573 24.8212 11.9577 25.5207 11.9577 26.3837C11.9577 27.2466 12.6573 27.9462 13.5202 27.9462H16.5655C17.4285 27.9462 18.128 27.2466 18.128 26.3837C18.128 25.5207 17.4285 24.8212 16.5655 24.8212Z" fill="#E76F51"/>
<path d="M45.7049 42.1879H20.9513C20.0883 42.1879 19.3888 42.8874 19.3888 43.7504C19.3888 44.6133 20.0883 45.3129 20.9513 45.3129H45.7049C46.5679 45.3129 47.2674 44.6133 47.2674 43.7504C47.2672 42.8874 46.5679 42.1879 45.7049 42.1879Z" fill="#E76F51"/>
<path d="M13.8329 42.6457C13.5423 42.3551 13.1392 42.1879 12.7282 42.1879C12.3173 42.1879 11.9142 42.3551 11.6236 42.6457C11.3329 42.9363 11.1657 43.3394 11.1657 43.7504C11.1657 44.1613 11.3329 44.5644 11.6236 44.8551C11.9142 45.1457 12.3173 45.3129 12.7282 45.3129C13.1392 45.3129 13.5423 45.1457 13.8329 44.8551C14.1236 44.5644 14.2907 44.1613 14.2907 43.7504C14.2907 43.3394 14.1236 42.9363 13.8329 42.6457Z" fill="#E76F51"/>
<path d="M45.7049 52.5007H20.9513C20.0883 52.5007 19.3888 53.2003 19.3888 54.0632C19.3888 54.9262 20.0883 55.6257 20.9513 55.6257H45.7049C46.5679 55.6257 47.2674 54.9262 47.2674 54.0632C47.2672 53.2003 46.5679 52.5007 45.7049 52.5007Z" fill="#E76F51"/>
<path d="M13.8329 52.9585C13.5423 52.6679 13.1392 52.5007 12.7282 52.5007C12.3173 52.5007 11.9142 52.6679 11.6236 52.9585C11.3329 53.2492 11.1657 53.6523 11.1657 54.0632C11.1657 54.4742 11.3329 54.8773 11.6236 55.1679C11.9142 55.4585 12.3173 55.6257 12.7282 55.6257C13.1392 55.6257 13.5423 55.4585 13.8329 55.1679C14.1236 54.8773 14.2907 54.4742 14.2907 54.0632C14.2907 53.6523 14.1236 53.2492 13.8329 52.9585Z" fill="#E76F51"/>
<path d="M45.7049 62.8129H20.9513C20.0883 62.8129 19.3888 63.5124 19.3888 64.3754C19.3888 65.2383 20.0883 65.9379 20.9513 65.9379H45.7049C46.5679 65.9379 47.2674 65.2383 47.2674 64.3754C47.2674 63.5124 46.5679 62.8129 45.7049 62.8129Z" fill="#E76F51"/>
<path d="M13.8329 63.2707C13.5423 62.9801 13.1392 62.8129 12.7282 62.8129C12.3173 62.8129 11.9142 62.9801 11.6236 63.2707C11.3329 63.5613 11.1657 63.9644 11.1657 64.3754C11.1657 64.7863 11.3329 65.1894 11.6236 65.4801C11.9142 65.7707 12.3173 65.9379 12.7282 65.9379C13.1392 65.9379 13.5423 65.7707 13.8329 65.4801C14.1236 65.1894 14.2907 64.7863 14.2907 64.3754C14.2907 63.9644 14.1236 63.5613 13.8329 63.2707Z" fill="#E76F51"/>
<g clip-path="url(#clip0)">
<path d="M36.5823 17.0741H24.4446V19.4855H28.725C30.2969 19.4855 31.6376 20.4935 32.1352 21.897H24.4446V24.3084H32.1352C31.6376 25.7118 30.2969 26.7198 28.725 26.7198H24.4446V29.1313L31.5118 36.1985L33.217 34.4934L27.855 29.1313H28.725C31.6363 29.1313 34.0723 27.0569 34.6324 24.3084H36.5823V21.897H34.6324C34.4509 21.0065 34.0725 20.1869 33.5448 19.4856H36.5823V17.0741Z" fill="#E76F51"/>
</g>
<defs>
<clipPath id="clip0">
<rect width="19.1244" height="19.1244" fill="white" transform="translate(20.9513 17.0741)"/>
</clipPath>
</defs>
</svg>
