<svg width="92" height="92" viewBox="0 0 92 92" fill="none" xmlns="http://www.w3.org/2000/svg">
<circle cx="46" cy="46" r="46" fill="#DAFFE2"/>
<path d="M63.1341 45.2188H57.3296V26.7813C57.3296 26.4654 57.1385 26.1805 56.8455 26.0595C56.5523 25.9385 56.215 26.0055 55.9908 26.2288L53.7691 28.4419L51.5475 26.2289C51.2412 25.9238 50.7446 25.9238 50.4383 26.2289L48.2167 28.442L45.9952 26.2289C45.689 25.9238 45.1924 25.9238 44.8861 26.2289L42.6644 28.442L40.4427 26.2289C40.1364 25.9238 39.6398 25.9238 39.3336 26.2289L37.1119 28.442L34.8904 26.2289C34.5841 25.9238 34.0875 25.9238 33.7812 26.2289L31.5596 28.442L29.338 26.2289C29.0336 25.9257 28.5413 25.9241 28.2343 26.2246C28.073 26.3825 27.9949 26.5929 28.0003 26.8019V61.9377C28.0003 64.1777 29.8296 66 32.0783 66H59.8393C59.8394 66 59.8395 66 59.8397 66C59.8399 66 59.8401 66 59.8404 66C62.089 66 63.9184 64.1777 63.9184 61.9377V46C63.9184 45.5685 63.5673 45.2188 63.1341 45.2188ZM32.0783 64.4375C30.6944 64.4375 29.5687 63.316 29.5687 61.9376V28.6684L31.005 30.0992C31.3113 30.4043 31.8079 30.4043 32.1142 30.0992L34.3358 27.8861L36.5575 30.0992C36.8638 30.4043 37.3604 30.4043 37.6667 30.0992L39.8883 27.8861L42.1101 30.0992C42.4163 30.4043 42.9129 30.4043 43.2192 30.0992L45.4408 27.8861L47.6625 30.0992C47.9688 30.4043 48.4653 30.4043 48.7717 30.0992L50.9933 27.8861L53.215 30.0992C53.5213 30.4043 54.0179 30.4043 54.3241 30.0992L55.7616 28.6673V46C55.7616 46.0071 55.7624 46.0141 55.7627 46.0212V61.9376C55.7627 62.8799 56.0874 63.7476 56.6298 64.4375H32.0783ZM62.3498 61.9376C62.3498 63.316 61.224 64.4375 59.8403 64.4375C58.4565 64.4375 57.3307 63.316 57.3307 61.9376V46.7812H62.3498V61.9376Z" fill="#3EB057"/>
<path d="M50.5437 38.4105H49.0152C48.582 38.4105 48.2309 38.7603 48.2309 39.1918C48.2309 39.6233 48.582 39.973 49.0152 39.973H50.5437C50.9768 39.973 51.3279 39.6233 51.3279 39.1918C51.3279 38.7603 50.9768 38.4105 50.5437 38.4105Z" fill="#3EB057"/>
<path d="M36.3147 38.4105H34.7862C34.3531 38.4105 34.002 38.7603 34.002 39.1918C34.002 39.6233 34.3531 39.973 34.7862 39.973H36.3147C36.7479 39.973 37.099 39.6233 37.099 39.1918C37.099 38.7603 36.7479 38.4105 36.3147 38.4105Z" fill="#3EB057"/>
<path d="M50.9405 47.094H38.516C38.0829 47.094 37.7318 47.4438 37.7318 47.8752C37.7318 48.3067 38.0829 48.6565 38.516 48.6565H50.9405C51.3737 48.6565 51.7248 48.3067 51.7248 47.8752C51.7247 47.4438 51.3737 47.094 50.9405 47.094Z" fill="#3EB057"/>
<path d="M34.9431 47.3229C34.7972 47.1776 34.5949 47.094 34.3886 47.094C34.1824 47.094 33.98 47.1776 33.8342 47.3229C33.6883 47.4682 33.6044 47.6698 33.6044 47.8752C33.6044 48.0807 33.6883 48.2823 33.8342 48.4276C33.98 48.5729 34.1824 48.6565 34.3886 48.6565C34.5949 48.6565 34.7972 48.5729 34.9431 48.4276C35.089 48.2823 35.1729 48.0807 35.1729 47.8752C35.1729 47.6698 35.089 47.4682 34.9431 47.3229Z" fill="#3EB057"/>
<path d="M50.9405 52.2504H38.516C38.0829 52.2504 37.7318 52.6001 37.7318 53.0316C37.7318 53.4631 38.0829 53.8129 38.516 53.8129H50.9405C51.3737 53.8129 51.7248 53.4631 51.7248 53.0316C51.7247 52.6001 51.3737 52.2504 50.9405 52.2504Z" fill="#3EB057"/>
<path d="M34.9431 52.4793C34.7972 52.334 34.5949 52.2504 34.3886 52.2504C34.1824 52.2504 33.98 52.334 33.8342 52.4793C33.6883 52.6246 33.6044 52.8261 33.6044 53.0316C33.6044 53.2371 33.6883 53.4386 33.8342 53.584C33.98 53.7293 34.1824 53.8129 34.3886 53.8129C34.5949 53.8129 34.7972 53.7293 34.9431 53.584C35.089 53.4386 35.1729 53.2371 35.1729 53.0316C35.1729 52.8261 35.089 52.6246 34.9431 52.4793Z" fill="#3EB057"/>
<path d="M50.9405 57.4065H38.516C38.0829 57.4065 37.7318 57.7563 37.7318 58.1877C37.7318 58.6192 38.0829 58.969 38.516 58.969H50.9405C51.3737 58.969 51.7248 58.6192 51.7248 58.1877C51.7248 57.7563 51.3737 57.4065 50.9405 57.4065Z" fill="#3EB057"/>
<path d="M34.9431 57.6354C34.7972 57.4901 34.5949 57.4065 34.3886 57.4065C34.1824 57.4065 33.98 57.4901 33.8342 57.6354C33.6883 57.7807 33.6044 57.9823 33.6044 58.1877C33.6044 58.3932 33.6883 58.5948 33.8342 58.7401C33.98 58.8854 34.1824 58.969 34.3886 58.969C34.5949 58.969 34.7972 58.8854 34.9431 58.7401C35.089 58.5948 35.1729 58.3932 35.1729 58.1877C35.1729 57.9823 35.089 57.7807 34.9431 57.6354Z" fill="#3EB057"/>
<g clip-path="url(#clip0)">
<path d="M46.3617 34.5371H40.2695V35.7428H42.4179C43.2069 35.7428 43.8798 36.2468 44.1296 36.9485H40.2695V38.1543H44.1296C43.8798 38.856 43.2069 39.36 42.4179 39.36H40.2695V40.5657L43.8167 44.0993L44.6725 43.2467L41.9812 40.5657H42.4179C43.8792 40.5657 45.1018 39.5285 45.383 38.1543H46.3617V36.9486H45.383C45.2919 36.5033 45.1019 36.0935 44.8371 35.7428H46.3617V34.5371Z" fill="#3EB057"/>
</g>
<defs>
<clipPath id="clip0">
<rect width="9.59908" height="9.56222" fill="white" transform="translate(38.5161 34.5371)"/>
</clipPath>
</defs>
</svg>
