<svg width="92" height="92" viewBox="0 0 92 92" fill="none" xmlns="http://www.w3.org/2000/svg">
<circle cx="46" cy="46" r="46" fill="#D1EFFF"/>
<path d="M34.5662 37.2383V41.4682C33.6426 41.7898 32.8821 42.4663 32.4546 43.3808L30.6405 47.2704C29.4706 49.7809 30.0356 52.7475 32.0467 54.6523L37.3201 59.6453V68.082C37.3201 68.589 37.7312 69 38.2381 69H42.3689C42.8758 69 43.2869 68.589 43.2869 68.082C43.2869 67.575 42.8758 67.1641 42.3689 67.1641H39.156V59.2503C39.156 58.9981 39.0523 58.757 38.8692 58.5837L33.3092 53.3193C31.8726 51.9586 31.4689 49.8393 32.3046 48.0462L34.1181 44.1576C34.5583 43.2161 35.6583 42.8484 36.5586 43.2687L45.6268 47.4969C44.3559 49.2132 42.0074 49.8612 39.9985 48.9248L37.5025 47.7608C37.043 47.5463 36.4968 47.7454 36.2826 48.2047C36.0683 48.6641 36.2671 49.2103 36.7265 49.4247L39.2226 50.5888C40.2458 51.0657 41.3953 51.2781 42.5826 51.1562C44.5196 53.2489 45.5818 55.9533 45.5818 58.8216C45.5818 59.3286 45.9929 59.7395 46.4998 59.7395C47.0067 59.7395 47.4178 59.3286 47.4178 58.8216C47.4178 55.8077 46.4088 52.9496 44.552 50.6312C45.9192 50.023 47.0817 48.939 47.7622 47.4798C47.7625 47.479 47.7627 47.4783 47.7631 47.4776C48.2191 47.6809 48.7231 47.7949 49.2537 47.7949C50.0733 47.7949 50.8309 47.5249 51.4426 47.0692C52.0321 48.311 53.298 49.1719 54.7615 49.1719C55.3269 49.1719 55.8627 49.0432 56.3415 48.814C56.0883 50.4619 55.6782 51.9645 55.253 53.5196C54.5601 56.0536 53.8435 58.674 53.8435 62.0234V67.1641H50.6306C50.1237 67.1641 49.7127 67.575 49.7127 68.082C49.7127 68.589 50.1237 69 50.6306 69H54.7615C55.2684 69 55.6795 68.589 55.6795 68.082V62.0234C55.6795 58.9205 56.3325 56.5322 57.0239 54.0039C57.7168 51.4698 58.4334 48.8495 58.4334 45.5V39.9922C58.4334 37.9675 56.7862 36.3203 54.7615 36.3203C53.9419 36.3203 53.1843 36.5904 52.5726 37.0461C51.9831 35.8042 50.7172 34.9434 49.2537 34.9434C48.4341 34.9434 47.6764 35.2134 47.0648 35.6691C46.4753 34.4273 45.2094 33.5664 43.7459 33.5664C42.65 33.5664 41.6653 34.0496 40.992 34.8135C40.3186 34.0496 39.3339 33.5664 38.2381 33.5664C36.2134 33.5664 34.5662 35.2136 34.5662 37.2383ZM52.9256 39.9922C52.9256 38.9799 53.7492 38.1562 54.7615 38.1562C55.7738 38.1562 56.5974 38.9799 56.5974 39.9922V45.5C56.5974 46.5123 55.7738 47.3359 54.7615 47.3359C53.7492 47.3359 52.9256 46.5123 52.9256 45.5V39.9922ZM47.4178 38.6152C47.4178 37.6029 48.2414 36.7793 49.2537 36.7793C50.266 36.7793 51.0896 37.6029 51.0896 38.6152V44.123C51.0896 45.1354 50.266 45.959 49.2537 45.959C48.2414 45.959 47.4178 45.1354 47.4178 44.123V38.6152ZM41.9099 37.2383C41.9099 36.2259 42.7335 35.4023 43.7459 35.4023C44.7582 35.4023 45.5818 36.2259 45.5818 37.2383V44.123C45.5818 44.6459 45.6924 45.1433 45.8903 45.594L41.9099 43.7381V37.2383ZM36.4021 37.2383C36.4021 36.2259 37.2257 35.4023 38.2381 35.4023C39.2504 35.4023 40.074 36.2259 40.074 37.2383V42.8821L37.3349 41.6051C37.0367 41.4658 36.7229 41.3685 36.4021 41.3134V37.2383Z" fill="#0088D0"/>
<path d="M47.418 26.2227V22.918C47.418 22.411 47.0069 22 46.5 22C45.9931 22 45.582 22.411 45.582 22.918V26.2227C45.582 26.7297 45.9931 27.1406 46.5 27.1406C47.0069 27.1406 47.418 26.7297 47.418 26.2227Z" fill="#0088D0"/>
<path d="M38.6971 29.2318C39.1362 28.9784 39.2867 28.417 39.0333 27.9779L37.6563 25.5921C37.4029 25.1529 36.8414 25.0024 36.4024 25.2558C35.9633 25.5093 35.8127 26.0706 36.0662 26.5098L37.4432 28.8956C37.6958 29.3334 38.2568 29.486 38.6971 29.2318Z" fill="#0088D0"/>
<path d="M31.2725 33.6893L28.8867 32.3124C28.4471 32.0588 27.886 32.2095 27.6327 32.6486C27.3793 33.0877 27.5298 33.6491 27.9689 33.9026L30.3547 35.2795C30.7919 35.5318 31.3542 35.3844 31.6086 34.9433C31.8621 34.5041 31.7115 33.9428 31.2725 33.6893Z" fill="#0088D0"/>
<path d="M55.5567 28.8957L56.9336 26.5099C57.1871 26.0708 57.0365 25.5094 56.5975 25.2559C56.1581 25.0024 55.597 25.1531 55.3435 25.5922L53.9666 27.978C53.7131 28.417 53.8637 28.9785 54.3027 29.2319C54.7401 29.4841 55.3021 29.3366 55.5567 28.8957Z" fill="#0088D0"/>
<path d="M62.6446 35.2793L65.0304 33.9024C65.4695 33.6489 65.62 33.0876 65.3666 32.6484C65.113 32.2094 64.5518 32.0586 64.1126 32.3122L61.7268 33.6891C61.2878 33.9426 61.1372 34.5039 61.3907 34.9431C61.6433 35.3809 62.2043 35.5335 62.6446 35.2793Z" fill="#0088D0"/>
<path d="M46.5 69C47.007 69 47.418 68.589 47.418 68.082C47.418 67.5751 47.007 67.1641 46.5 67.1641C45.993 67.1641 45.582 67.5751 45.582 68.082C45.582 68.589 45.993 69 46.5 69Z" fill="#0088D0"/>
</svg>
