<svg width="92" height="92" viewBox="0 0 92 92" fill="none" xmlns="http://www.w3.org/2000/svg">
<circle cx="46" cy="46" r="46" fill="#FFBABA"/>
<rect width="47" height="48" transform="translate(23 22)" fill="#FFBABA"/>
<path d="M67.7258 56.0645H63.5564C63.3472 56.0645 63.1774 55.8911 63.1774 55.6774C63.1774 55.593 63.2039 55.5125 63.2532 55.4452C64.6716 53.5151 65.4516 51.1228 65.4516 48.7097V48.3226C65.4516 46.1881 63.7513 44.4516 61.6613 44.4516C60.8251 44.4516 60.1452 45.1461 60.1452 46V47.3355C60.1452 49.2632 59.4098 51.0748 58.0756 52.4382C57.6314 52.8911 57.1303 53.2828 56.5853 53.6003L52.3629 56.0645H50.2903V54.5161H36.6308C37.5867 53.2201 38.1613 51.6152 38.1613 49.871C38.1613 45.6021 34.7606 42.129 30.5806 42.129C26.4007 42.129 23 45.6021 23 49.871C23 54.1399 26.4007 57.6129 30.5806 57.6129C31.6586 57.6129 32.6835 57.3783 33.6129 56.9618V70H50.2903V68.4516H52.419L56.2093 70H67.7258C68.9796 70 70 68.958 70 67.6774C70 67.0805 69.7718 66.5409 69.4087 66.1291C69.7726 65.7172 70 65.1776 70 64.5807C70 63.9838 69.7718 63.4441 69.4087 63.0323C69.7726 62.6204 70 62.0808 70 61.4839C70 60.887 69.7718 60.3474 69.4087 59.9355C69.7726 59.5236 70 58.984 70 58.3871C70 57.1066 68.9796 56.0645 67.7258 56.0645ZM24.5161 49.871C24.5161 46.456 27.2368 43.6774 30.5806 43.6774C33.9245 43.6774 36.6452 46.456 36.6452 49.871C36.6452 51.3365 36.1418 52.6836 35.3049 53.745C34.7045 52.9817 33.9434 52.3801 33.083 51.9814C33.8669 51.2715 34.371 50.248 34.371 49.0968C34.371 46.9623 32.6706 45.2258 30.5806 45.2258C28.4907 45.2258 26.7903 46.9623 26.7903 49.0968C26.7903 50.248 27.2944 51.2715 28.0783 51.9814C27.2179 52.3809 26.4568 52.9825 25.8564 53.745C25.0195 52.6836 24.5161 51.3365 24.5161 49.871ZM28.3065 49.0968C28.3065 47.8163 29.3268 46.7742 30.5806 46.7742C31.8345 46.7742 32.8548 47.8163 32.8548 49.0968C32.8548 50.3773 31.8345 51.4194 30.5806 51.4194C29.3268 51.4194 28.3065 50.3773 28.3065 49.0968ZM26.948 54.8188C27.8008 53.6637 29.1426 52.9678 30.5806 52.9678C32.0187 52.9678 33.3605 53.6645 34.2133 54.8188C33.199 55.5969 31.9436 56.0645 30.5806 56.0645C29.2176 56.0645 27.9623 55.5969 26.948 54.8188ZM35.129 56.0645H45.7419V68.4516H35.129V56.0645ZM48.7742 68.4516H47.2581V56.0645H48.7742V68.4516ZM67.7258 68.4516H56.5004L52.7101 66.9032H50.2903V57.6129H52.7662L57.3373 54.945C57.9991 54.5587 58.6086 54.0841 59.1475 53.5329C60.7683 51.8777 61.6613 49.6766 61.6613 47.3355V46C62.9151 46 63.9355 47.0421 63.9355 48.3226V48.7097C63.9355 50.7899 63.2623 52.8524 62.0396 54.5169C61.7955 54.8498 61.6613 55.2617 61.6613 55.6774C61.6613 56.7443 62.5118 57.6129 63.5564 57.6129H67.7258C68.1435 57.6129 68.4839 57.9605 68.4839 58.3871C68.4839 58.8137 68.1435 59.1613 67.7258 59.1613H63.9355V60.7097H67.7258C68.1435 60.7097 68.4839 61.0573 68.4839 61.4839C68.4839 61.9105 68.1435 62.2581 67.7258 62.2581H63.9355V63.8065H67.7258C68.1435 63.8065 68.4839 64.1541 68.4839 64.5807C68.4839 65.0072 68.1435 65.3549 67.7258 65.3549H63.9355V66.9032H67.7258C68.1435 66.9032 68.4839 67.2509 68.4839 67.6774C68.4839 68.104 68.1435 68.4516 67.7258 68.4516Z" fill="#F83333"/>
<path d="M62.4191 42.9033C66.5991 42.9033 69.9998 39.4303 69.9998 35.1614C69.9998 30.8925 66.5991 27.4194 62.4191 27.4194C58.2392 27.4194 54.8385 30.8925 54.8385 35.1614C54.8385 39.4303 58.2392 42.9033 62.4191 42.9033ZM58.7865 40.1093C59.6393 38.9542 60.9811 38.2582 62.4191 38.2582C63.8572 38.2582 65.199 38.9549 66.0518 40.1093C65.0375 40.8873 63.7821 41.3549 62.4191 41.3549C61.0561 41.3549 59.8008 40.8873 58.7865 40.1093ZM60.145 34.3872C60.145 33.1067 61.1653 32.0646 62.4191 32.0646C63.673 32.0646 64.6933 33.1067 64.6933 34.3872C64.6933 35.6677 63.673 36.7098 62.4191 36.7098C61.1653 36.7098 60.145 35.6677 60.145 34.3872ZM62.4191 28.9678C65.763 28.9678 68.4837 31.7464 68.4837 35.1614C68.4837 36.6269 67.9803 37.974 67.1434 39.0354C66.543 38.2721 65.7819 37.6705 64.9215 37.2718C65.7054 36.5619 66.2095 35.5384 66.2095 34.3872C66.2095 32.2527 64.5091 30.5162 62.4191 30.5162C60.3292 30.5162 58.6288 32.2527 58.6288 34.3872C58.6288 35.5384 59.1329 36.5619 59.9168 37.2718C59.0564 37.6713 58.2953 38.2729 57.6949 39.0354C56.858 37.974 56.3546 36.6269 56.3546 35.1614C56.3546 31.7464 59.0753 28.9678 62.4191 28.9678Z" fill="#F83333"/>
<path d="M42.7099 43.6774C48.5622 43.6774 53.3229 38.8155 53.3229 32.8387C53.3229 26.8619 48.5622 22 42.7099 22C36.8577 22 32.097 26.8619 32.097 32.8387C32.097 38.8155 36.8577 43.6774 42.7099 43.6774ZM42.7099 42.1291C40.1553 42.1291 37.8462 41.0436 36.1921 39.3056C36.5469 38.1203 37.1882 37.0852 38.0319 36.2754L39.2191 41.1249L42.7099 38.4516L46.2008 41.1257L47.388 36.2761C48.2309 37.086 48.8723 38.1211 49.2278 39.3063C47.5737 41.0436 45.2646 42.1291 42.7099 42.1291ZM39.6777 29.7419C39.6777 28.0341 41.0377 26.6452 42.7099 26.6452C44.3822 26.6452 45.7422 28.0341 45.7422 29.7419C45.7422 31.4498 44.3822 32.8387 42.7099 32.8387C41.0377 32.8387 39.6777 31.4498 39.6777 29.7419ZM42.7099 36.2746L41.2962 34.542C41.754 34.4444 42.2263 34.3871 42.7099 34.3871C43.1936 34.3871 43.6659 34.4444 44.1237 34.542L42.7099 36.2746ZM45.6634 35.0738C45.8006 35.1404 45.9355 35.2101 46.0674 35.286L45.2836 38.488L43.8031 37.3538L45.6634 35.0738ZM39.7565 35.0738L41.6168 37.3538L40.1363 38.488L39.3525 35.286C39.4844 35.2093 39.6193 35.1404 39.7565 35.0738ZM42.7099 23.5484C47.7261 23.5484 51.8067 27.7159 51.8067 32.8387C51.8067 34.7038 51.2609 36.438 50.3308 37.895C49.4075 35.7613 47.6768 34.134 45.5656 33.352C46.5973 32.4996 47.2583 31.199 47.2583 29.7419C47.2583 27.1801 45.2184 25.0968 42.7099 25.0968C40.2015 25.0968 38.1616 27.1801 38.1616 29.7419C38.1616 31.199 38.8226 32.4996 39.8536 33.352C37.7424 34.1332 36.0117 35.7613 35.0884 37.895C34.159 36.438 33.6132 34.7038 33.6132 32.8387C33.6132 27.7159 37.6938 23.5484 42.7099 23.5484Z" fill="#F83333"/>
</svg>
