<svg width="89" height="89" viewBox="0 0 89 89" fill="none" xmlns="http://www.w3.org/2000/svg">
<path d="M84.6935 63.1612H76.7984C76.4022 63.1612 76.0806 62.8397 76.0806 62.4435C76.0806 62.287 76.1309 62.1377 76.2242 62.0128C78.91 58.4342 80.3871 53.9985 80.3871 49.5241V48.8064C80.3871 44.8487 77.1673 41.629 73.2097 41.629C71.6263 41.629 70.3387 42.9166 70.3387 44.4999V46.9761C70.3387 50.5505 68.9463 53.9095 66.4198 56.4374C65.5786 57.2772 64.6298 58.0035 63.5977 58.5921L55.602 63.1612H51.6774V60.2902H25.8114C27.6216 57.8872 28.7097 54.9115 28.7097 51.6773C28.7097 43.7621 22.2701 37.3225 14.3548 37.3225C6.43958 37.3225 0 43.7621 0 51.6773C0 59.5926 6.43958 66.0322 14.3548 66.0322C16.3961 66.0322 18.3369 65.5972 20.0968 64.8249V88.9999H51.6774V86.1289H55.7082L62.8857 88.9999H84.6935C87.0678 88.9999 89 87.0678 89 84.6935C89 83.5867 88.5679 82.5862 87.8803 81.8225C88.5693 81.0588 89 80.0583 89 78.9515C89 77.8448 88.5679 76.8442 87.8803 76.0806C88.5693 75.3169 89 74.3164 89 73.2096C89 72.1028 88.5679 71.1023 87.8803 70.3386C88.5693 69.575 89 68.5744 89 67.4677C89 65.0934 87.0678 63.1612 84.6935 63.1612ZM2.87097 51.6773C2.87097 45.3454 8.02292 40.1935 14.3548 40.1935C20.6868 40.1935 25.8387 45.3454 25.8387 51.6773C25.8387 54.3947 24.8855 56.8925 23.3008 58.8605C22.1639 57.4451 20.7226 56.3297 19.0934 55.5905C20.5777 54.2741 21.5323 52.3764 21.5323 50.2419C21.5323 46.2842 18.3125 43.0644 14.3548 43.0644C10.3972 43.0644 7.17742 46.2842 7.17742 50.2419C7.17742 52.3764 8.13201 54.2741 9.6163 55.5905C7.98703 56.3312 6.5458 57.4466 5.4089 58.8605C3.82413 56.8925 2.87097 54.3947 2.87097 51.6773ZM10.0484 50.2419C10.0484 47.8676 11.9805 45.9354 14.3548 45.9354C16.7291 45.9354 18.6613 47.8676 18.6613 50.2419C18.6613 52.6162 16.7291 54.5483 14.3548 54.5483C11.9805 54.5483 10.0484 52.6162 10.0484 50.2419ZM7.476 60.8515C9.09092 58.7098 11.6317 57.4193 14.3548 57.4193C17.0779 57.4193 19.6188 58.7112 21.2337 60.8515C19.313 62.2942 16.9358 63.1612 14.3548 63.1612C11.7738 63.1612 9.39668 62.2942 7.476 60.8515ZM22.9677 63.1612H43.0645V86.1289H22.9677V63.1612ZM48.8064 86.1289H45.9355V63.1612H48.8064V86.1289ZM84.6935 86.1289H63.4369L56.2595 83.258H51.6774V66.0322H56.3657L65.0217 61.0855C66.2748 60.3692 67.429 59.4892 68.4496 58.4672C71.5187 55.3981 73.2097 51.317 73.2097 46.9761V44.4999C75.5839 44.4999 77.5161 46.4321 77.5161 48.8064V49.5241C77.5161 53.3813 76.2414 57.2054 73.926 60.2917C73.4637 60.9089 73.2097 61.6726 73.2097 62.4435C73.2097 64.4216 74.8203 66.0322 76.7984 66.0322H84.6935C85.4845 66.0322 86.129 66.6767 86.129 67.4677C86.129 68.2586 85.4845 68.9031 84.6935 68.9031H77.5161V71.7741H84.6935C85.4845 71.7741 86.129 72.4186 86.129 73.2096C86.129 74.0005 85.4845 74.6451 84.6935 74.6451H77.5161V77.516H84.6935C85.4845 77.516 86.129 78.1606 86.129 78.9515C86.129 79.7425 85.4845 80.387 84.6935 80.387H77.5161V83.258H84.6935C85.4845 83.258 86.129 83.9025 86.129 84.6935C86.129 85.4844 85.4845 86.1289 84.6935 86.1289Z" fill="#585858"/>
<path d="M74.6447 38.7581C82.56 38.7581 88.9996 32.3186 88.9996 24.4033C88.9996 16.488 82.56 10.0485 74.6447 10.0485C66.7295 10.0485 60.2899 16.488 60.2899 24.4033C60.2899 32.3186 66.7295 38.7581 74.6447 38.7581ZM67.7659 33.5775C69.3808 31.4357 71.9216 30.1452 74.6447 30.1452C77.3678 30.1452 79.9086 31.4372 81.5236 33.5775C79.6029 35.0201 77.2257 35.8872 74.6447 35.8872C72.0637 35.8872 69.6866 35.0201 67.7659 33.5775ZM70.3383 22.9678C70.3383 20.5935 72.2704 18.6614 74.6447 18.6614C77.019 18.6614 78.9512 20.5935 78.9512 22.9678C78.9512 25.3421 77.019 27.2743 74.6447 27.2743C72.2704 27.2743 70.3383 25.3421 70.3383 22.9678ZM74.6447 12.9194C80.9766 12.9194 86.1286 18.0714 86.1286 24.4033C86.1286 27.1207 85.1754 29.6184 83.5907 31.5865C82.4537 30.1711 81.0125 29.0557 79.3832 28.3164C80.8675 27.0001 81.8221 25.1024 81.8221 22.9678C81.8221 19.0102 78.6023 15.7904 74.6447 15.7904C70.6871 15.7904 67.4673 19.0102 67.4673 22.9678C67.4673 25.1024 68.4219 27.0001 69.9062 28.3164C68.2769 29.0571 66.8357 30.1725 65.6988 31.5865C64.114 29.6184 63.1609 27.1207 63.1609 24.4033C63.1609 18.0714 68.3128 12.9194 74.6447 12.9194Z" fill="#E76F51"/>
<path d="M37.3231 40.1935C48.4051 40.1935 57.4199 31.1787 57.4199 20.0968C57.4199 9.01484 48.4051 0 37.3231 0C26.2412 0 17.2263 9.01484 17.2263 20.0968C17.2263 31.1787 26.2412 40.1935 37.3231 40.1935ZM37.3231 37.3226C32.4855 37.3226 28.1131 35.31 24.9808 32.0874C25.6526 29.8896 26.8671 27.9704 28.4648 26.4689L30.7127 35.4608L37.3231 30.504L43.9335 35.4622L46.1815 26.4703C47.7777 27.9718 48.9922 29.8911 49.6654 32.0888C46.5332 35.31 42.1607 37.3226 37.3231 37.3226ZM31.5812 14.3548C31.5812 11.1882 34.1564 8.6129 37.3231 8.6129C40.4898 8.6129 43.0651 11.1882 43.0651 14.3548C43.0651 17.5215 40.4898 20.0968 37.3231 20.0968C34.1564 20.0968 31.5812 17.5215 31.5812 14.3548ZM37.3231 26.4674L34.6459 23.2548C35.513 23.074 36.4073 22.9677 37.3231 22.9677C38.239 22.9677 39.1333 23.074 40.0003 23.2548L37.3231 26.4674ZM42.9158 24.241C43.1756 24.3645 43.4311 24.4937 43.6809 24.6343L42.1966 30.5715L39.3931 28.4685L42.9158 24.241ZM31.7305 24.241L35.2532 28.4685L32.4497 30.5715L30.9654 24.6343C31.2151 24.4922 31.4707 24.3645 31.7305 24.241ZM37.3231 2.87097C46.8217 2.87097 54.5489 10.5982 54.5489 20.0968C54.5489 23.5548 53.5154 26.7703 51.754 29.4719C50.0056 25.5157 46.7284 22.4983 42.7306 21.0485C44.6843 19.468 45.936 17.0564 45.936 14.3548C45.936 9.60482 42.0731 5.74193 37.3231 5.74193C32.5731 5.74193 28.7102 9.60482 28.7102 14.3548C28.7102 17.0564 29.962 19.468 31.9142 21.0485C27.9164 22.4969 24.6392 25.5157 22.8908 29.4719C21.1309 26.7703 20.0973 23.5548 20.0973 20.0968C20.0973 10.5982 27.8245 2.87097 37.3231 2.87097Z" fill="#E76F51"/>
</svg>
