<svg width="79" height="89" viewBox="0 0 79 89" fill="none" xmlns="http://www.w3.org/2000/svg">
<path d="M18.9473 40.6027C18.9473 52.2944 28.425 61.7721 40.1168 61.7721C51.8085 61.7721 61.2862 52.2944 61.2862 40.6027C61.2862 28.9109 51.8085 19.4332 40.1168 19.4332C28.4307 19.4461 18.9608 28.9166 18.9473 40.6027ZM40.1168 22.353C50.1961 22.353 58.3665 30.5234 58.3665 40.6027C58.3665 50.682 50.1961 58.8524 40.1168 58.8524C30.0374 58.8524 21.867 50.682 21.867 40.6027C21.8784 30.5283 30.0424 22.3644 40.1168 22.353Z" fill="#585858"/>
<path d="M68.4838 65.3704L57.0479 70.7737C55.469 67.8368 52.4402 65.9678 49.107 65.8737L38.5501 65.5836C36.8785 65.5358 35.2383 65.1124 33.7521 64.3447L32.6779 63.788C27.1777 60.921 20.6219 60.9281 15.1274 63.8065L15.1944 61.3729C15.2165 60.5667 14.5814 59.8952 13.7752 59.8731L2.19891 59.5545C1.39271 59.5324 0.721938 60.1675 0.69984 60.9737L0.000559557 86.3774C-0.0215379 87.1836 0.613589 87.8551 1.41979 87.8772L12.9961 88.1958H13.036C13.8272 88.1958 14.4745 87.5664 14.4958 86.7759L14.5294 85.5605L17.5368 83.9502C18.7172 83.3151 20.0972 83.164 21.3867 83.5289L39.3456 88.5693C39.377 88.5786 39.4084 88.5857 39.4404 88.5928C40.7385 88.8644 42.0615 89.0006 43.3873 88.9999C46.1959 89.0013 48.9716 88.3961 51.5242 87.2242C51.587 87.1957 51.6476 87.1622 51.7053 87.1244L77.7441 70.2818C78.3927 69.862 78.6023 69.0101 78.2224 68.3372C76.2892 64.9071 72.0015 63.6005 68.4838 65.3704ZM2.95949 84.9988L3.57823 62.5134L12.2355 62.7515L11.6167 85.2376L2.95949 84.9988ZM50.2091 84.6167C47.0377 86.0481 43.4957 86.443 40.087 85.7465L22.1765 80.719C20.1607 80.1494 18.0029 80.3854 16.1589 81.3769L14.622 82.2002L15.0333 67.2502C19.9033 64.0111 26.1491 63.6782 31.3356 66.3805L32.4098 66.9372C34.2874 67.9067 36.3582 68.4413 38.4703 68.5026L49.0279 68.7927C51.9933 68.8783 54.5117 70.9896 55.1133 73.8951L39.3877 73.461C38.5815 73.4389 37.9107 74.0747 37.8879 74.8802C37.8658 75.6864 38.5016 76.3579 39.3071 76.38L56.6616 76.8576H56.7022C57.4927 76.8569 58.1392 76.2275 58.1606 75.4377C58.1785 74.8033 58.1314 74.1681 58.0195 73.5437L69.749 68.0015C69.7604 67.9965 69.7718 67.9908 69.7832 67.9851C71.447 67.1432 73.4586 67.4248 74.8272 68.6915L50.2091 84.6167Z" fill="#585858"/>
<path d="M41.5776 15.3286V1.45986C41.5776 0.65366 40.9239 0 40.1177 0C39.3115 0 38.6578 0.65366 38.6578 1.45986V15.3286C38.6578 16.1348 39.3115 16.7884 40.1177 16.7884C40.9239 16.7884 41.5776 16.1348 41.5776 15.3286Z" fill="#585858"/>
<path d="M52.5256 15.3285V8.75906C52.5256 7.95285 51.8719 7.29919 51.0657 7.29919C50.2595 7.29919 49.6059 7.95285 49.6059 8.75906V15.3285C49.6059 16.1347 50.2595 16.7883 51.0657 16.7883C51.8719 16.7883 52.5256 16.1347 52.5256 15.3285Z" fill="#585858"/>
<path d="M30.628 15.3285V8.75906C30.628 7.95285 29.9743 7.29919 29.1681 7.29919C28.3619 7.29919 27.7082 7.95285 27.7082 8.75906V15.3285C27.7082 16.1347 28.3619 16.7883 29.1681 16.7883C29.9743 16.7883 30.628 16.1347 30.628 15.3285Z" fill="#585858"/>
<g clip-path="url(#clip0)">
<path d="M47.0491 31.4827H33.5716V34.1603H38.3245C40.0699 34.1603 41.5585 35.2795 42.1112 36.8379H33.5716V39.5155H42.1112C41.5585 41.0739 40.0699 42.1931 38.3245 42.1931H33.5716V44.8708L41.4189 52.7181L43.3123 50.8247L37.3584 44.8708H38.3245C41.5572 44.8708 44.262 42.5674 44.8839 39.5156H47.0491V36.8379H44.8839C44.6824 35.8492 44.2622 34.9391 43.6763 34.1603H47.0491V31.4827Z" fill="#E76F51"/>
</g>
<defs>
<clipPath id="clip0">
<rect width="21.2355" height="21.2355" fill="white" transform="translate(29.693 31.4827)"/>
</clipPath>
</defs>
</svg>
