<svg width="92" height="92" viewBox="0 0 92 92" fill="none" xmlns="http://www.w3.org/2000/svg">
<circle cx="46" cy="46" r="46" fill="#DADEFF"/>
<path d="M34.1154 43.7229C34.1154 50.5541 39.6755 56.0916 46.5345 56.0916C53.3934 56.0916 58.9535 50.5541 58.9535 43.7229C58.9535 36.8918 53.3934 31.3542 46.5345 31.3542C39.6789 31.3617 34.1234 36.8951 34.1154 43.7229ZM46.5345 33.0602C52.4475 33.0602 57.2407 37.8339 57.2407 43.7229C57.2407 49.612 52.4475 54.3857 46.5345 54.3857C40.6214 54.3857 35.8283 49.612 35.8283 43.7229C35.835 37.8368 40.6244 33.0668 46.5345 33.0602Z" fill="#565FAE"/>
<path d="M63.176 58.1941L56.4671 61.351C55.5409 59.6351 53.764 58.5431 51.8086 58.4881L45.6154 58.3186C44.6348 58.2907 43.6725 58.0433 42.8006 57.5947L42.1705 57.2695C38.9438 55.5944 35.0978 55.5985 31.8745 57.2803L31.9138 55.8584C31.9268 55.3874 31.5542 54.9951 31.0812 54.9821L24.29 54.796C23.817 54.7831 23.4235 55.1542 23.4106 55.6252L23.0003 70.4678C22.9874 70.9388 23.36 71.3312 23.8329 71.3441L30.6241 71.5302H30.6476C31.1117 71.5302 31.4914 71.1625 31.504 70.7006L31.5236 69.9905L33.2879 69.0497C33.9804 68.6786 34.79 68.5903 35.5465 68.8035L46.0821 71.7485C46.1005 71.7539 46.1189 71.7581 46.1377 71.7622C46.8992 71.9209 47.6753 72.0004 48.4532 72C50.1008 72.0009 51.7292 71.6473 53.2267 70.9626C53.2635 70.9459 53.299 70.9263 53.3329 70.9043L68.6085 61.0636C68.9891 60.8183 69.112 60.3206 68.8891 59.9275C67.755 57.9233 65.2397 57.1599 63.176 58.1941ZM24.7362 69.6623L25.0992 56.5248L30.1779 56.6639L29.815 69.8018L24.7362 69.6623ZM52.4551 69.4391C50.5946 70.2754 48.5167 70.5061 46.517 70.0992L36.0099 67.1618C34.8272 66.829 33.5614 66.9668 32.4796 67.5462L31.578 68.0272L31.8193 59.2923C34.6763 57.3998 38.3404 57.2053 41.383 58.7842L42.0132 59.1095C43.1147 59.6759 44.3295 59.9883 45.5686 60.0241L51.7622 60.1936C53.5018 60.2436 54.9792 61.4772 55.3322 63.1748L46.1068 62.9211C45.6338 62.9082 45.2403 63.2797 45.2269 63.7503C45.214 64.2214 45.587 64.6137 46.0595 64.6266L56.2405 64.9057H56.2643C56.7281 64.9053 57.1074 64.5375 57.1199 64.076C57.1304 63.7054 57.1028 63.3343 57.0371 62.9694L63.9182 59.7313C63.9249 59.7284 63.9316 59.725 63.9383 59.7217C64.9143 59.2299 66.0944 59.3944 66.8973 60.1345L52.4551 69.4391Z" fill="#565FAE"/>
<path d="M47.3915 28.956V20.853C47.3915 20.3819 47.008 20 46.535 20C46.0621 20 45.6786 20.3819 45.6786 20.853V28.956C45.6786 29.4271 46.0621 29.809 46.535 29.809C47.008 29.809 47.3915 29.4271 47.3915 28.956Z" fill="#565FAE"/>
<path d="M53.8141 28.956V25.1177C53.8141 24.6467 53.4306 24.2648 52.9577 24.2648C52.4847 24.2648 52.1013 24.6467 52.1013 25.1177V28.956C52.1013 29.4271 52.4847 29.809 52.9577 29.809C53.4306 29.809 53.8141 29.4271 53.8141 28.956Z" fill="#565FAE"/>
<path d="M40.9679 28.956V25.1177C40.9679 24.6467 40.5844 24.2648 40.1114 24.2648C39.6385 24.2648 39.255 24.6467 39.255 25.1177V28.956C39.255 29.4271 39.6385 29.809 40.1114 29.809C40.5844 29.809 40.9679 29.4271 40.9679 28.956Z" fill="#565FAE"/>
<g clip-path="url(#clip0)">
<path d="M50.6013 38.3944H42.6948V39.9589H45.483C46.5069 39.9589 47.3803 40.6128 47.7045 41.5233H42.6948V43.0878H47.7045C47.3803 43.9983 46.5069 44.6522 45.483 44.6522H42.6948V46.2167L47.2984 50.8017L48.4091 49.6954L44.9163 46.2167H45.483C47.3795 46.2167 48.9663 44.8709 49.3311 43.0878H50.6013V41.5233H49.3311C49.2129 40.9456 48.9664 40.4139 48.6227 39.9589H50.6013V38.3944Z" fill="#565FAE"/>
</g>
<defs>
<clipPath id="clip0">
<rect width="12.4578" height="12.4073" fill="white" transform="translate(40.4194 38.3944)"/>
</clipPath>
</defs>
</svg>
