<svg width="537" height="382" viewBox="0 0 537 382" fill="none" xmlns="http://www.w3.org/2000/svg">
<circle cx="269" cy="191" r="191" fill="#E76F51"/>
<g filter="url(#filter0_dd)">
<rect x="21" y="46" width="495" height="290" rx="5" fill="#F2F2F2"/>
</g>
<path fill-rule="evenodd" clip-rule="evenodd" d="M400.34 176C400.34 173.791 402.131 172 404.34 172H481.34C483.549 172 485.34 173.791 485.34 176V208C485.34 210.209 483.549 212 481.34 212H404.34C402.131 212 400.34 210.209 400.34 208V176Z" fill="#E76F51"/>
<path d="M423.807 185.672H431.311V187.496H425.823V190.28H431.023V192.104H425.823V195.176H431.599V197H423.807V185.672ZM433.412 189.32H435.236V190.552H435.268C435.45 190.168 435.727 189.837 436.1 189.56C436.474 189.272 436.98 189.128 437.62 189.128C438.132 189.128 438.564 189.213 438.916 189.384C439.279 189.555 439.572 189.779 439.796 190.056C440.02 190.333 440.18 190.653 440.276 191.016C440.372 191.379 440.42 191.757 440.42 192.152V197H438.5V193.112C438.5 192.899 438.49 192.664 438.468 192.408C438.447 192.141 438.388 191.896 438.292 191.672C438.207 191.437 438.068 191.245 437.876 191.096C437.684 190.936 437.423 190.856 437.092 190.856C436.772 190.856 436.5 190.909 436.276 191.016C436.063 191.123 435.882 191.267 435.732 191.448C435.594 191.629 435.492 191.837 435.428 192.072C435.364 192.307 435.332 192.552 435.332 192.808V197H433.412V189.32ZM441.704 190.952V189.32H443.288V187.096H445.208V189.32H447.32V190.952H445.208V194.312C445.208 194.696 445.277 195 445.416 195.224C445.565 195.448 445.853 195.56 446.28 195.56C446.451 195.56 446.637 195.544 446.84 195.512C447.043 195.469 447.203 195.405 447.32 195.32V196.936C447.117 197.032 446.867 197.096 446.568 197.128C446.28 197.171 446.024 197.192 445.8 197.192C445.288 197.192 444.867 197.133 444.536 197.016C444.216 196.909 443.96 196.744 443.768 196.52C443.587 196.285 443.459 195.997 443.384 195.656C443.32 195.315 443.288 194.92 443.288 194.472V190.952H441.704ZM450.355 193.832C450.419 194.408 450.643 194.856 451.027 195.176C451.411 195.496 451.875 195.656 452.419 195.656C452.899 195.656 453.299 195.56 453.619 195.368C453.949 195.165 454.237 194.915 454.483 194.616L455.859 195.656C455.411 196.211 454.909 196.605 454.355 196.84C453.8 197.075 453.219 197.192 452.611 197.192C452.035 197.192 451.491 197.096 450.979 196.904C450.467 196.712 450.024 196.44 449.651 196.088C449.277 195.736 448.979 195.315 448.755 194.824C448.541 194.323 448.435 193.768 448.435 193.16C448.435 192.552 448.541 192.003 448.755 191.512C448.979 191.011 449.277 190.584 449.651 190.232C450.024 189.88 450.467 189.608 450.979 189.416C451.491 189.224 452.035 189.128 452.611 189.128C453.144 189.128 453.629 189.224 454.067 189.416C454.515 189.597 454.893 189.864 455.203 190.216C455.523 190.568 455.768 191.005 455.939 191.528C456.12 192.04 456.211 192.632 456.211 193.304V193.832H450.355ZM454.291 192.392C454.28 191.827 454.104 191.384 453.763 191.064C453.421 190.733 452.947 190.568 452.339 190.568C451.763 190.568 451.304 190.733 450.963 191.064C450.632 191.395 450.429 191.837 450.355 192.392H454.291ZM458.006 189.32H459.926V190.536H459.958C460.172 190.088 460.476 189.741 460.87 189.496C461.265 189.251 461.718 189.128 462.23 189.128C462.348 189.128 462.46 189.139 462.566 189.16C462.684 189.181 462.801 189.208 462.918 189.24V191.096C462.758 191.053 462.598 191.021 462.438 191C462.289 190.968 462.14 190.952 461.99 190.952C461.542 190.952 461.18 191.037 460.902 191.208C460.636 191.368 460.428 191.555 460.278 191.768C460.14 191.981 460.044 192.195 459.99 192.408C459.948 192.621 459.926 192.781 459.926 192.888V197H458.006V189.32Z" fill="white"/>
<path d="M52.5 175C52.5 173.067 54.067 171.5 56 171.5H386.31C388.243 171.5 389.81 173.067 389.81 175V207C389.81 208.933 388.243 210.5 386.31 210.5H56C54.067 210.5 52.5 208.933 52.5 207V175Z" fill="white" stroke="#D9D9D9"/>
<path d="M68.808 190.672H72.408V191.632H68.808V195.232H67.848V191.632H64.248V190.672H67.848V187.072H68.808V190.672ZM80.6323 187.984C80.6323 187.621 80.5683 187.291 80.4403 186.992C80.3229 186.693 80.1523 186.437 79.9283 186.224C79.7043 186.011 79.4376 185.845 79.1283 185.728C78.8189 185.6 78.4776 185.536 78.1043 185.536C77.7309 185.536 77.3896 185.6 77.0803 185.728C76.7709 185.845 76.5043 186.011 76.2803 186.224C76.0563 186.437 75.8803 186.693 75.7523 186.992C75.6349 187.291 75.5763 187.621 75.5763 187.984C75.5763 188.347 75.6349 188.677 75.7523 188.976C75.8803 189.275 76.0563 189.536 76.2803 189.76C76.5043 189.973 76.7709 190.139 77.0803 190.256C77.3896 190.373 77.7309 190.432 78.1043 190.432C78.4776 190.432 78.8189 190.373 79.1283 190.256C79.4376 190.139 79.7043 189.973 79.9283 189.76C80.1523 189.536 80.3229 189.275 80.4403 188.976C80.5683 188.677 80.6323 188.347 80.6323 187.984ZM79.4803 191.136L79.4483 191.104C79.2669 191.232 79.0216 191.328 78.7123 191.392C78.4136 191.456 78.1363 191.488 77.8802 191.488C77.3896 191.488 76.9309 191.403 76.5043 191.232C76.0883 191.051 75.7256 190.805 75.4163 190.496C75.1069 190.187 74.8616 189.819 74.6803 189.392C74.5096 188.965 74.4243 188.496 74.4243 187.984C74.4243 187.461 74.5149 186.987 74.6963 186.56C74.8776 186.133 75.1336 185.765 75.4643 185.456C75.7949 185.147 76.1843 184.907 76.6323 184.736C77.0803 184.565 77.5709 184.48 78.1043 184.48C78.6376 184.48 79.1283 184.565 79.5763 184.736C80.0243 184.907 80.4136 185.147 80.7443 185.456C81.0749 185.765 81.3309 186.133 81.5123 186.56C81.6936 186.987 81.7843 187.461 81.7843 187.984C81.7843 188.613 81.6883 189.163 81.4963 189.632C81.3149 190.101 81.0856 190.565 80.8083 191.024L77.7523 196H76.3923L79.4803 191.136ZM88.1149 196H86.9629V186.112L84.9309 187.904L84.2109 187.04L87.0909 184.672H88.1149V196ZM107.32 187.984C107.32 187.621 107.256 187.291 107.128 186.992C107.01 186.693 106.84 186.437 106.616 186.224C106.392 186.011 106.125 185.845 105.816 185.728C105.506 185.6 105.165 185.536 104.792 185.536C104.418 185.536 104.077 185.6 103.768 185.728C103.458 185.845 103.192 186.011 102.968 186.224C102.744 186.437 102.568 186.693 102.44 186.992C102.322 187.291 102.264 187.621 102.264 187.984C102.264 188.347 102.322 188.677 102.44 188.976C102.568 189.275 102.744 189.536 102.968 189.76C103.192 189.973 103.458 190.139 103.768 190.256C104.077 190.373 104.418 190.432 104.792 190.432C105.165 190.432 105.506 190.373 105.816 190.256C106.125 190.139 106.392 189.973 106.616 189.76C106.84 189.536 107.01 189.275 107.128 188.976C107.256 188.677 107.32 188.347 107.32 187.984ZM106.168 191.136L106.136 191.104C105.954 191.232 105.709 191.328 105.4 191.392C105.101 191.456 104.824 191.488 104.568 191.488C104.077 191.488 103.618 191.403 103.192 191.232C102.776 191.051 102.413 190.805 102.104 190.496C101.794 190.187 101.549 189.819 101.368 189.392C101.197 188.965 101.112 188.496 101.112 187.984C101.112 187.461 101.202 186.987 101.384 186.56C101.565 186.133 101.821 185.765 102.152 185.456C102.482 185.147 102.872 184.907 103.32 184.736C103.768 184.565 104.258 184.48 104.792 184.48C105.325 184.48 105.816 184.565 106.264 184.736C106.712 184.907 107.101 185.147 107.432 185.456C107.762 185.765 108.018 186.133 108.2 186.56C108.381 186.987 108.472 187.461 108.472 187.984C108.472 188.613 108.376 189.163 108.184 189.632C108.002 190.101 107.773 190.565 107.496 191.024L104.44 196H103.08L106.168 191.136ZM116.114 192.816C116.114 192.485 116.056 192.181 115.938 191.904C115.821 191.616 115.656 191.371 115.442 191.168C115.24 190.955 114.984 190.789 114.674 190.672C114.376 190.555 114.045 190.496 113.682 190.496C113.309 190.496 112.973 190.555 112.674 190.672C112.376 190.789 112.12 190.955 111.906 191.168C111.704 191.371 111.544 191.616 111.426 191.904C111.309 192.181 111.25 192.485 111.25 192.816C111.25 193.147 111.309 193.456 111.426 193.744C111.544 194.021 111.704 194.267 111.906 194.48C112.12 194.683 112.376 194.843 112.674 194.96C112.973 195.077 113.309 195.136 113.682 195.136C114.045 195.136 114.376 195.077 114.674 194.96C114.984 194.843 115.24 194.683 115.442 194.48C115.656 194.267 115.821 194.021 115.938 193.744C116.056 193.456 116.114 193.147 116.114 192.816ZM115.698 187.536C115.698 187.248 115.645 186.981 115.538 186.736C115.442 186.491 115.304 186.283 115.122 186.112C114.941 185.931 114.728 185.792 114.482 185.696C114.237 185.589 113.97 185.536 113.682 185.536C113.394 185.536 113.128 185.589 112.882 185.696C112.637 185.792 112.424 185.931 112.242 186.112C112.061 186.283 111.917 186.491 111.81 186.736C111.714 186.981 111.666 187.248 111.666 187.536C111.666 187.824 111.714 188.091 111.81 188.336C111.917 188.581 112.061 188.795 112.242 188.976C112.424 189.147 112.637 189.285 112.882 189.392C113.128 189.488 113.394 189.536 113.682 189.536C113.97 189.536 114.237 189.488 114.482 189.392C114.728 189.285 114.941 189.147 115.122 188.976C115.304 188.795 115.442 188.581 115.538 188.336C115.645 188.091 115.698 187.824 115.698 187.536ZM112.21 189.968C111.965 189.883 111.736 189.76 111.522 189.6C111.32 189.429 111.144 189.232 110.994 189.008C110.845 188.784 110.728 188.539 110.642 188.272C110.557 188.005 110.514 187.728 110.514 187.44C110.514 186.992 110.6 186.587 110.77 186.224C110.941 185.851 111.17 185.536 111.458 185.28C111.746 185.024 112.082 184.827 112.466 184.688C112.85 184.549 113.256 184.48 113.682 184.48C114.109 184.48 114.514 184.549 114.898 184.688C115.282 184.827 115.618 185.024 115.906 185.28C116.194 185.536 116.424 185.851 116.594 186.224C116.765 186.587 116.85 186.992 116.85 187.44C116.85 187.728 116.808 188.005 116.722 188.272C116.637 188.539 116.52 188.784 116.37 189.008C116.221 189.232 116.04 189.429 115.826 189.6C115.624 189.76 115.4 189.883 115.154 189.968V190C115.794 190.171 116.306 190.523 116.69 191.056C117.074 191.589 117.266 192.229 117.266 192.976C117.266 193.467 117.165 193.909 116.962 194.304C116.77 194.699 116.509 195.04 116.178 195.328C115.858 195.605 115.48 195.819 115.042 195.968C114.616 196.117 114.162 196.192 113.682 196.192C113.202 196.192 112.744 196.117 112.306 195.968C111.88 195.819 111.501 195.605 111.17 195.328C110.85 195.04 110.589 194.699 110.386 194.304C110.194 193.909 110.098 193.467 110.098 192.976C110.098 192.229 110.29 191.589 110.674 191.056C111.058 190.523 111.57 190.171 112.21 190V189.968ZM125.709 185.728L121.149 196H119.853L124.509 185.728H118.989V184.672H125.709V185.728ZM130.28 189.536H130.872C131.202 189.536 131.517 189.499 131.816 189.424C132.125 189.349 132.392 189.232 132.616 189.072C132.84 188.901 133.016 188.683 133.144 188.416C133.282 188.149 133.352 187.829 133.352 187.456C133.352 186.848 133.165 186.379 132.792 186.048C132.429 185.707 131.917 185.536 131.256 185.536C130.776 185.536 130.354 185.643 129.992 185.856C129.629 186.069 129.33 186.379 129.096 186.784L128.088 186.272C128.429 185.664 128.861 185.216 129.384 184.928C129.917 184.629 130.53 184.48 131.224 184.48C131.672 184.48 132.093 184.544 132.488 184.672C132.882 184.8 133.229 184.992 133.528 185.248C133.826 185.493 134.061 185.803 134.232 186.176C134.413 186.539 134.504 186.955 134.504 187.424C134.504 187.733 134.45 188.027 134.344 188.304C134.248 188.581 134.109 188.832 133.928 189.056C133.757 189.28 133.554 189.477 133.32 189.648C133.085 189.808 132.84 189.931 132.584 190.016L132.632 190.048C132.952 190.112 133.245 190.235 133.512 190.416C133.778 190.587 134.008 190.8 134.2 191.056C134.392 191.312 134.541 191.6 134.648 191.92C134.754 192.24 134.808 192.576 134.808 192.928C134.808 193.451 134.712 193.915 134.52 194.32C134.328 194.725 134.066 195.067 133.736 195.344C133.405 195.621 133.021 195.835 132.584 195.984C132.146 196.123 131.682 196.192 131.192 196.192C130.36 196.192 129.634 196.011 129.016 195.648C128.397 195.285 127.933 194.704 127.624 193.904L128.84 193.536C129.032 194.08 129.314 194.485 129.688 194.752C130.072 195.008 130.605 195.136 131.288 195.136C131.608 195.136 131.912 195.083 132.2 194.976C132.488 194.869 132.738 194.72 132.952 194.528C133.176 194.325 133.346 194.085 133.464 193.808C133.592 193.531 133.656 193.227 133.656 192.896C133.656 192.469 133.576 192.112 133.416 191.824C133.256 191.525 133.042 191.285 132.776 191.104C132.509 190.923 132.2 190.795 131.848 190.72C131.506 190.635 131.149 190.592 130.776 190.592H130.28V189.536ZM143.874 196H136.674V194.672L141.186 190.08C141.357 189.909 141.528 189.728 141.698 189.536C141.869 189.344 142.024 189.141 142.162 188.928C142.301 188.715 142.413 188.491 142.498 188.256C142.584 188.021 142.626 187.776 142.626 187.52C142.626 187.211 142.568 186.933 142.45 186.688C142.344 186.443 142.189 186.235 141.986 186.064C141.784 185.893 141.549 185.765 141.282 185.68C141.016 185.584 140.733 185.536 140.434 185.536C139.858 185.536 139.368 185.696 138.962 186.016C138.557 186.336 138.296 186.768 138.178 187.312L136.962 187.184C137.122 186.341 137.506 185.68 138.114 185.2C138.733 184.72 139.48 184.48 140.354 184.48C140.813 184.48 141.245 184.544 141.65 184.672C142.066 184.789 142.429 184.971 142.738 185.216C143.058 185.461 143.309 185.771 143.49 186.144C143.682 186.507 143.778 186.933 143.778 187.424C143.778 187.861 143.709 188.261 143.57 188.624C143.442 188.987 143.272 189.328 143.058 189.648C142.845 189.968 142.6 190.272 142.322 190.56C142.056 190.848 141.778 191.131 141.49 191.408L137.922 194.944H143.874V196ZM151.677 192.816C151.677 192.485 151.618 192.181 151.501 191.904C151.384 191.616 151.218 191.371 151.005 191.168C150.802 190.955 150.546 190.789 150.237 190.672C149.938 190.555 149.608 190.496 149.245 190.496C148.872 190.496 148.536 190.555 148.237 190.672C147.938 190.789 147.682 190.955 147.469 191.168C147.266 191.371 147.106 191.616 146.989 191.904C146.872 192.181 146.813 192.485 146.813 192.816C146.813 193.147 146.872 193.456 146.989 193.744C147.106 194.021 147.266 194.267 147.469 194.48C147.682 194.683 147.938 194.843 148.237 194.96C148.536 195.077 148.872 195.136 149.245 195.136C149.608 195.136 149.938 195.077 150.237 194.96C150.546 194.843 150.802 194.683 151.005 194.48C151.218 194.267 151.384 194.021 151.501 193.744C151.618 193.456 151.677 193.147 151.677 192.816ZM151.261 187.536C151.261 187.248 151.208 186.981 151.101 186.736C151.005 186.491 150.866 186.283 150.685 186.112C150.504 185.931 150.29 185.792 150.045 185.696C149.8 185.589 149.533 185.536 149.245 185.536C148.957 185.536 148.69 185.589 148.445 185.696C148.2 185.792 147.986 185.931 147.805 186.112C147.624 186.283 147.48 186.491 147.373 186.736C147.277 186.981 147.229 187.248 147.229 187.536C147.229 187.824 147.277 188.091 147.373 188.336C147.48 188.581 147.624 188.795 147.805 188.976C147.986 189.147 148.2 189.285 148.445 189.392C148.69 189.488 148.957 189.536 149.245 189.536C149.533 189.536 149.8 189.488 150.045 189.392C150.29 189.285 150.504 189.147 150.685 188.976C150.866 188.795 151.005 188.581 151.101 188.336C151.208 188.091 151.261 187.824 151.261 187.536ZM147.773 189.968C147.528 189.883 147.298 189.76 147.085 189.6C146.882 189.429 146.706 189.232 146.557 189.008C146.408 188.784 146.29 188.539 146.205 188.272C146.12 188.005 146.077 187.728 146.077 187.44C146.077 186.992 146.162 186.587 146.333 186.224C146.504 185.851 146.733 185.536 147.021 185.28C147.309 185.024 147.645 184.827 148.029 184.688C148.413 184.549 148.818 184.48 149.245 184.48C149.672 184.48 150.077 184.549 150.461 184.688C150.845 184.827 151.181 185.024 151.469 185.28C151.757 185.536 151.986 185.851 152.157 186.224C152.328 186.587 152.413 186.992 152.413 187.44C152.413 187.728 152.37 188.005 152.285 188.272C152.2 188.539 152.082 188.784 151.933 189.008C151.784 189.232 151.602 189.429 151.389 189.6C151.186 189.76 150.962 189.883 150.717 189.968V190C151.357 190.171 151.869 190.523 152.253 191.056C152.637 191.589 152.829 192.229 152.829 192.976C152.829 193.467 152.728 193.909 152.525 194.304C152.333 194.699 152.072 195.04 151.741 195.328C151.421 195.605 151.042 195.819 150.605 195.968C150.178 196.117 149.725 196.192 149.245 196.192C148.765 196.192 148.306 196.117 147.869 195.968C147.442 195.819 147.064 195.605 146.733 195.328C146.413 195.04 146.152 194.699 145.949 194.304C145.757 193.909 145.661 193.467 145.661 192.976C145.661 192.229 145.853 191.589 146.237 191.056C146.621 190.523 147.133 190.171 147.773 190V189.968ZM156.952 189.536H157.544C157.874 189.536 158.189 189.499 158.488 189.424C158.797 189.349 159.064 189.232 159.288 189.072C159.512 188.901 159.688 188.683 159.816 188.416C159.954 188.149 160.024 187.829 160.024 187.456C160.024 186.848 159.837 186.379 159.464 186.048C159.101 185.707 158.589 185.536 157.928 185.536C157.448 185.536 157.026 185.643 156.664 185.856C156.301 186.069 156.002 186.379 155.768 186.784L154.76 186.272C155.101 185.664 155.533 185.216 156.056 184.928C156.589 184.629 157.202 184.48 157.896 184.48C158.344 184.48 158.765 184.544 159.16 184.672C159.554 184.8 159.901 184.992 160.2 185.248C160.498 185.493 160.733 185.803 160.904 186.176C161.085 186.539 161.176 186.955 161.176 187.424C161.176 187.733 161.122 188.027 161.016 188.304C160.92 188.581 160.781 188.832 160.6 189.056C160.429 189.28 160.226 189.477 159.992 189.648C159.757 189.808 159.512 189.931 159.256 190.016L159.304 190.048C159.624 190.112 159.917 190.235 160.184 190.416C160.45 190.587 160.68 190.8 160.872 191.056C161.064 191.312 161.213 191.6 161.32 191.92C161.426 192.24 161.48 192.576 161.48 192.928C161.48 193.451 161.384 193.915 161.192 194.32C161 194.725 160.738 195.067 160.408 195.344C160.077 195.621 159.693 195.835 159.256 195.984C158.818 196.123 158.354 196.192 157.864 196.192C157.032 196.192 156.306 196.011 155.688 195.648C155.069 195.285 154.605 194.704 154.296 193.904L155.512 193.536C155.704 194.08 155.986 194.485 156.36 194.752C156.744 195.008 157.277 195.136 157.96 195.136C158.28 195.136 158.584 195.083 158.872 194.976C159.16 194.869 159.41 194.72 159.624 194.528C159.848 194.325 160.018 194.085 160.136 193.808C160.264 193.531 160.328 193.227 160.328 192.896C160.328 192.469 160.248 192.112 160.088 191.824C159.928 191.525 159.714 191.285 159.448 191.104C159.181 190.923 158.872 190.795 158.52 190.72C158.178 190.635 157.821 190.592 157.448 190.592H156.952V189.536ZM168.082 185.824H168.05L164.146 192.256H168.082V185.824ZM169.234 192.256H170.866V193.312H169.234V196H168.082V193.312H163.186V192L167.762 184.672H169.234V192.256ZM177.037 196H175.885V186.112L173.853 187.904L173.133 187.04L176.013 184.672H177.037V196ZM182.279 192.688C182.279 193.051 182.338 193.381 182.455 193.68C182.583 193.979 182.759 194.24 182.983 194.464C183.207 194.677 183.474 194.843 183.783 194.96C184.093 195.077 184.434 195.136 184.807 195.136C185.181 195.136 185.522 195.077 185.831 194.96C186.141 194.843 186.407 194.677 186.631 194.464C186.855 194.24 187.026 193.979 187.143 193.68C187.271 193.381 187.335 193.051 187.335 192.688C187.335 192.325 187.271 191.995 187.143 191.696C187.026 191.397 186.855 191.141 186.631 190.928C186.407 190.715 186.141 190.549 185.831 190.432C185.522 190.304 185.181 190.24 184.807 190.24C184.434 190.24 184.093 190.304 183.783 190.432C183.474 190.549 183.207 190.715 182.983 190.928C182.759 191.141 182.583 191.397 182.455 191.696C182.338 191.995 182.279 192.325 182.279 192.688ZM183.431 189.536L183.463 189.568C183.645 189.44 183.885 189.344 184.183 189.28C184.493 189.216 184.775 189.184 185.031 189.184C185.522 189.184 185.975 189.275 186.391 189.456C186.818 189.627 187.186 189.867 187.495 190.176C187.805 190.485 188.045 190.853 188.215 191.28C188.397 191.707 188.487 192.176 188.487 192.688C188.487 193.211 188.397 193.685 188.215 194.112C188.034 194.539 187.778 194.907 187.447 195.216C187.117 195.525 186.727 195.765 186.279 195.936C185.831 196.107 185.341 196.192 184.807 196.192C184.274 196.192 183.783 196.107 183.335 195.936C182.887 195.765 182.498 195.525 182.167 195.216C181.837 194.907 181.581 194.539 181.399 194.112C181.218 193.685 181.127 193.211 181.127 192.688C181.127 192.059 181.218 191.509 181.399 191.04C181.591 190.571 181.826 190.107 182.103 189.648L185.159 184.672H186.519L183.431 189.536Z" fill="black" fill-opacity="0.45"/>
<path d="M21 51C21 48.2386 23.2386 46 26 46H511C513.761 46 516 48.2386 516 51V68H21V51Z" fill="#C4C4C4"/>
<circle cx="34" cy="57" r="4" fill="#918D8D"/>
<circle cx="44" cy="57" r="4" fill="#918D8D"/>
<circle cx="54" cy="57" r="4" fill="#918D8D"/>
<defs>
<filter id="filter0_dd" x="0" y="25" width="537" height="332" filterUnits="userSpaceOnUse" color-interpolation-filters="sRGB">
<feFlood flood-opacity="0" result="BackgroundImageFix"/>
<feColorMatrix in="SourceAlpha" type="matrix" values="0 0 0 0 0 0 0 0 0 0 0 0 0 0 0 0 0 0 127 0"/>
<feOffset dx="1" dy="1"/>
<feGaussianBlur stdDeviation="10"/>
<feColorMatrix type="matrix" values="0 0 0 0 0 0 0 0 0 0 0 0 0 0 0 0 0 0 0.1 0"/>
<feBlend mode="normal" in2="BackgroundImageFix" result="effect1_dropShadow"/>
<feColorMatrix in="SourceAlpha" type="matrix" values="0 0 0 0 0 0 0 0 0 0 0 0 0 0 0 0 0 0 127 0"/>
<feOffset dx="-1" dy="-1"/>
<feGaussianBlur stdDeviation="10"/>
<feColorMatrix type="matrix" values="0 0 0 0 0 0 0 0 0 0 0 0 0 0 0 0 0 0 0.1 0"/>
<feBlend mode="normal" in2="effect1_dropShadow" result="effect2_dropShadow"/>
<feBlend mode="normal" in="SourceGraphic" in2="effect2_dropShadow" result="shape"/>
</filter>
</defs>
</svg>
