<svg width="645" height="338" viewBox="0 0 645 338" fill="none" xmlns="http://www.w3.org/2000/svg">
<g opacity="0.1">
<path opacity="0.1" d="M248.459 196.103C251.716 196.103 254.356 192.646 254.356 188.381C254.356 184.116 251.716 180.659 248.459 180.659C245.202 180.659 242.561 184.116 242.561 188.381C242.561 192.646 245.202 196.103 248.459 196.103Z" fill="#3F3D56"/>
<path opacity="0.1" d="M253.128 155.343C253.951 153.906 254.376 152.277 254.361 150.622C254.361 146.356 251.718 142.9 248.458 142.9C245.199 142.9 242.54 146.367 242.54 150.632C242.525 152.287 242.951 153.917 243.773 155.353C242.965 156.794 242.54 158.419 242.54 160.072C242.54 161.724 242.965 163.349 243.773 164.79C242.965 166.232 242.54 167.857 242.54 169.509C242.54 171.162 242.965 172.787 243.773 174.228C242.949 175.664 242.523 177.294 242.54 178.949C242.54 183.209 245.183 186.671 248.438 186.671C251.692 186.671 254.341 183.209 254.341 178.949C254.357 177.294 253.931 175.664 253.107 174.228C253.916 172.787 254.34 171.162 254.34 169.509C254.34 167.857 253.916 166.232 253.107 164.79C253.916 163.349 254.34 161.724 254.34 160.072C254.34 158.419 253.916 156.794 253.107 155.353L253.128 155.343Z" fill="#3F3D56"/>
<path opacity="0.1" d="M248.459 148.916C251.716 148.916 254.356 145.459 254.356 141.195C254.356 136.93 251.716 133.473 248.459 133.473C245.202 133.473 242.561 136.93 242.561 141.195C242.561 145.459 245.202 148.916 248.459 148.916Z" fill="#3F3D56"/>
<path opacity="0.1" d="M248.459 139.479C251.716 139.479 254.356 136.022 254.356 131.757C254.356 127.493 251.716 124.035 248.459 124.035C245.202 124.035 242.561 127.493 242.561 131.757C242.561 136.022 245.202 139.479 248.459 139.479Z" fill="#3F3D56"/>
<path opacity="0.1" d="M226.381 67.168C225.573 66.1436 224.839 65.0629 224.184 63.9342L239.68 61.3896L222.919 61.514C221.315 58.0137 220.441 54.2228 220.352 50.3732C220.263 46.5237 220.96 42.6965 222.401 39.1256L244.888 50.7914L224.158 35.5446C226.085 32.1565 228.693 29.2038 231.816 26.8719C234.939 24.5401 238.511 22.8797 242.308 21.9949C246.104 21.1102 250.042 21.0203 253.874 21.731C257.707 22.4416 261.351 23.9374 264.577 26.1242C267.804 28.3111 270.543 31.1419 272.623 34.4385C274.703 37.7351 276.078 41.4263 276.663 45.2801C277.247 49.1338 277.028 53.0668 276.019 56.8319C275.01 60.5969 273.233 64.1125 270.8 67.1577C272.057 68.754 273.138 70.4811 274.024 72.3091L253.9 82.7881L275.351 75.5896C276.858 80.0423 277.231 84.8008 276.436 89.4341C275.64 94.0673 273.702 98.4289 270.795 102.124C274.074 106.292 276.113 111.298 276.681 116.57C277.248 121.842 276.321 127.167 274.004 131.937C271.688 136.707 268.076 140.729 263.581 143.543C259.086 146.356 253.891 147.849 248.588 147.849C243.286 147.849 238.09 146.356 233.595 143.543C229.101 140.729 225.489 136.707 223.172 131.937C220.856 127.167 219.928 121.842 220.496 116.57C221.063 111.298 223.103 106.292 226.381 102.124C222.463 97.1435 220.333 90.9906 220.333 84.6538C220.333 78.3169 222.463 72.164 226.381 67.1836V67.168Z" fill="#6C63FF"/>
<path opacity="0.1" d="M276.843 84.6384C276.854 90.9769 274.722 97.133 270.795 102.109C274.074 106.276 276.114 111.282 276.681 116.554C277.249 121.827 276.321 127.152 274.004 131.922C271.688 136.692 268.076 140.714 263.581 143.527C259.087 146.341 253.891 147.833 248.588 147.833C243.286 147.833 238.09 146.341 233.596 143.527C229.101 140.714 225.489 136.692 223.172 131.922C220.856 127.152 219.928 121.827 220.496 116.554C221.063 111.282 223.103 106.276 226.381 102.109C222.593 97.2992 276.843 81.4667 276.843 84.6384Z" fill="black"/>
</g>
<g opacity="0.1">
<path opacity="0.1" d="M317.313 177.638C319.749 177.638 321.723 175.056 321.723 171.87C321.723 168.684 319.749 166.102 317.313 166.102C314.877 166.102 312.903 168.684 312.903 171.87C312.903 175.056 314.877 177.638 317.313 177.638Z" fill="#3F3D56"/>
<path opacity="0.1" d="M320.795 147.186C321.409 146.113 321.725 144.897 321.713 143.661C321.713 140.474 319.738 137.888 317.308 137.888C314.877 137.888 312.897 140.479 312.897 143.661C312.884 144.898 313.203 146.115 313.82 147.186C313.215 148.263 312.898 149.477 312.898 150.712C312.898 151.947 313.215 153.162 313.82 154.239C313.215 155.316 312.898 156.53 312.898 157.766C312.898 159.001 313.215 160.215 313.82 161.292C313.203 162.363 312.884 163.58 312.897 164.816C312.897 168.004 314.872 170.59 317.308 170.59C319.743 170.59 321.713 167.998 321.713 164.816C321.725 163.581 321.409 162.365 320.795 161.292C321.395 160.214 321.71 159 321.71 157.766C321.71 156.531 321.395 155.318 320.795 154.239C321.395 153.16 321.71 151.946 321.71 150.712C321.71 149.478 321.395 148.264 320.795 147.186Z" fill="#3F3D56"/>
<path opacity="0.1" d="M317.313 142.376C319.749 142.376 321.723 139.794 321.723 136.608C321.723 133.423 319.749 130.84 317.313 130.84C314.877 130.84 312.903 133.423 312.903 136.608C312.903 139.794 314.877 142.376 317.313 142.376Z" fill="#3F3D56"/>
<path opacity="0.1" d="M317.313 135.323C319.749 135.323 321.723 132.741 321.723 129.555C321.723 126.369 319.749 123.787 317.313 123.787C314.877 123.787 312.903 126.369 312.903 129.555C312.903 132.741 314.877 135.323 317.313 135.323Z" fill="#3F3D56"/>
<path opacity="0.1" d="M300.812 81.2904C300.207 80.5261 299.658 79.719 299.169 78.8754L310.752 76.9734L298.226 77.0667C297.024 74.4514 296.369 71.6186 296.299 68.7413C296.23 65.864 296.748 63.0027 297.822 60.3325L314.628 69.0546L299.128 57.6531C300.577 55.1387 302.53 52.95 304.863 51.2238C307.196 49.4976 309.86 48.2708 312.689 47.6201C315.517 46.9694 318.449 46.9087 321.302 47.4418C324.156 47.9749 326.868 49.0904 329.271 50.7186C331.673 52.3468 333.715 54.4528 335.267 56.9051C336.82 59.3574 337.85 62.1034 338.294 64.9717C338.737 67.8399 338.585 70.7689 337.847 73.5757C337.108 76.3826 335.799 79.007 334.001 81.2853C334.938 82.4795 335.746 83.7703 336.41 85.1358L321.381 92.9458L337.411 87.5664C338.537 90.894 338.815 94.4497 338.22 97.9119C337.626 101.374 336.177 104.633 334.006 107.395C336.459 110.508 337.986 114.249 338.413 118.19C338.839 122.131 338.148 126.112 336.417 129.678C334.687 133.244 331.988 136.251 328.629 138.355C325.269 140.459 321.386 141.575 317.422 141.575C313.458 141.575 309.574 140.459 306.215 138.355C302.856 136.251 300.156 133.244 298.426 129.678C296.696 126.112 296.004 122.131 296.431 118.19C296.857 114.249 298.385 110.508 300.838 107.395C297.91 103.673 296.318 99.0752 296.318 94.3399C296.318 89.6047 297.91 85.0069 300.838 81.2853L300.812 81.2904Z" fill="#6C63FF"/>
<path opacity="0.1" d="M338.52 94.3452C338.527 99.0815 336.934 103.682 334.001 107.4C336.454 110.513 337.981 114.254 338.408 118.195C338.834 122.136 338.143 126.117 336.412 129.683C334.682 133.25 331.983 136.257 328.624 138.361C325.264 140.465 321.38 141.58 317.417 141.58C313.453 141.58 309.569 140.465 306.21 138.361C302.851 136.257 300.151 133.25 298.421 129.683C296.691 126.117 295.999 122.136 296.426 118.195C296.852 114.254 298.38 110.513 300.833 107.4C297.993 103.808 338.52 91.9768 338.52 94.3452Z" fill="black"/>
</g>
<g opacity="0.1">
<path opacity="0.1" d="M538.242 175.373C541.5 175.373 544.14 171.916 544.14 167.651C544.14 163.386 541.5 159.929 538.242 159.929C534.985 159.929 532.345 163.386 532.345 167.651C532.345 171.916 534.985 175.373 538.242 175.373Z" fill="#3F3D56"/>
<path opacity="0.1" d="M533.573 134.613C532.75 133.176 532.324 131.547 532.339 129.892C532.339 125.626 534.982 122.17 538.242 122.17C541.502 122.17 544.14 125.626 544.14 129.892C544.155 131.547 543.729 133.176 542.906 134.613C543.715 136.054 544.14 137.679 544.14 139.331C544.14 140.984 543.715 142.609 542.906 144.05C543.715 145.491 544.14 147.116 544.14 148.769C544.14 150.421 543.715 152.046 542.906 153.487C543.731 154.923 544.156 156.553 544.14 158.209C544.14 162.469 541.497 165.931 538.242 165.931C534.988 165.931 532.339 162.469 532.339 158.209C532.323 156.553 532.749 154.923 533.573 153.487C532.764 152.046 532.34 150.421 532.34 148.769C532.34 147.116 532.764 145.491 533.573 144.05C532.764 142.609 532.34 140.984 532.34 139.331C532.34 137.679 532.764 136.054 533.573 134.613Z" fill="#3F3D56"/>
<path opacity="0.1" d="M538.242 128.186C541.5 128.186 544.14 124.729 544.14 120.465C544.14 116.2 541.5 112.743 538.242 112.743C534.985 112.743 532.345 116.2 532.345 120.465C532.345 124.729 534.985 128.186 538.242 128.186Z" fill="#3F3D56"/>
<path opacity="0.1" d="M538.242 118.749C541.5 118.749 544.14 115.292 544.14 111.027C544.14 106.763 541.5 103.305 538.242 103.305C534.985 103.305 532.345 106.763 532.345 111.027C532.345 115.292 534.985 118.749 538.242 118.749Z" fill="#3F3D56"/>
<path opacity="0.1" d="M560.32 46.4381C561.128 45.4136 561.862 44.3329 562.517 43.2042L547.021 40.6596L563.781 40.784C565.386 37.2837 566.26 33.4928 566.349 29.6433C566.438 25.7937 565.741 21.9665 564.3 18.3957L541.813 30.0614L562.543 14.8146C560.616 11.4265 558.008 8.47377 554.885 6.14196C551.761 3.81015 548.189 2.14969 544.393 1.26495C540.597 0.380218 536.659 0.290342 532.827 1.00097C528.994 1.71161 525.35 3.20738 522.123 5.39427C518.897 7.58116 516.158 10.4119 514.078 13.7085C511.998 17.0051 510.623 20.6963 510.038 24.5501C509.454 28.4038 509.673 32.3369 510.682 36.1019C511.691 39.8669 513.467 43.3825 515.9 46.4277C514.644 48.024 513.563 49.7511 512.677 51.5791L532.801 62.0581L511.35 54.8596C509.843 59.3123 509.47 64.0709 510.265 68.7041C511.061 73.3373 512.999 77.699 515.906 81.3939C512.627 85.5615 510.588 90.5676 510.02 95.8398C509.453 101.112 510.38 106.437 512.697 111.207C515.013 115.977 518.625 119.999 523.12 122.813C527.614 125.626 532.81 127.119 538.113 127.119C543.415 127.119 548.611 125.626 553.105 122.813C557.6 119.999 561.212 115.977 563.529 111.207C565.845 106.437 566.773 101.112 566.205 95.8398C565.638 90.5676 563.598 85.5615 560.32 81.3939C564.238 76.4135 566.368 70.2606 566.368 63.9238C566.368 57.5869 564.238 51.434 560.32 46.4536V46.4381Z" fill="#6C63FF"/>
<path opacity="0.1" d="M509.858 63.9084C509.848 70.2469 511.979 76.403 515.906 81.3785C512.627 85.5461 510.588 90.5522 510.02 95.8244C509.453 101.097 510.38 106.422 512.697 111.192C515.013 115.962 518.625 119.984 523.12 122.797C527.615 125.611 532.81 127.103 538.113 127.103C543.415 127.103 548.611 125.611 553.106 122.797C557.6 119.984 561.212 115.962 563.529 111.192C565.845 106.422 566.773 101.097 566.205 95.8244C565.638 90.5522 563.598 85.5461 560.32 81.3785C564.108 76.5692 509.858 60.7367 509.858 63.9084Z" fill="black"/>
</g>
<g opacity="0.1">
<path opacity="0.1" d="M481.307 174.528C483.743 174.528 485.718 171.946 485.718 168.76C485.718 165.575 483.743 162.992 481.307 162.992C478.872 162.992 476.897 165.575 476.897 168.76C476.897 171.946 478.872 174.528 481.307 174.528Z" fill="#3F3D56"/>
<path opacity="0.1" d="M477.825 144.076C477.212 143.004 476.895 141.787 476.908 140.552C476.908 137.365 478.882 134.779 481.313 134.779C483.743 134.779 485.723 137.37 485.723 140.552C485.736 141.788 485.418 143.005 484.801 144.076C485.405 145.153 485.723 146.368 485.723 147.603C485.723 148.838 485.405 150.052 484.801 151.13C485.405 152.207 485.723 153.421 485.723 154.656C485.723 155.891 485.405 157.106 484.801 158.183C485.418 159.254 485.736 160.471 485.723 161.707C485.723 164.894 483.748 167.48 481.313 167.48C478.877 167.48 476.908 164.889 476.908 161.707C476.895 160.472 477.212 159.255 477.825 158.183C477.225 157.104 476.91 155.89 476.91 154.656C476.91 153.422 477.225 152.208 477.825 151.13C477.225 150.051 476.91 148.837 476.91 147.603C476.91 146.369 477.225 145.155 477.825 144.076Z" fill="#3F3D56"/>
<path opacity="0.1" d="M481.307 139.267C483.743 139.267 485.718 136.684 485.718 133.499C485.718 130.313 483.743 127.73 481.307 127.73C478.872 127.73 476.897 130.313 476.897 133.499C476.897 136.684 478.872 139.267 481.307 139.267Z" fill="#3F3D56"/>
<path opacity="0.1" d="M481.307 132.213C483.743 132.213 485.718 129.631 485.718 126.445C485.718 123.26 483.743 120.677 481.307 120.677C478.872 120.677 476.897 123.26 476.897 126.445C476.897 129.631 478.872 132.213 481.307 132.213Z" fill="#3F3D56"/>
<path opacity="0.1" d="M497.808 78.1808C498.413 77.4165 498.962 76.6094 499.451 75.7658L487.868 73.8638L500.394 73.9571C501.596 71.3418 502.252 68.5089 502.321 65.6316C502.391 62.7544 501.872 59.8931 500.799 57.2229L483.992 65.945L499.493 54.5435C498.043 52.0291 496.09 49.8404 493.757 48.1142C491.424 46.388 488.76 45.1612 485.931 44.5105C483.103 43.8598 480.171 43.7991 477.318 44.3322C474.465 44.8653 471.752 45.9808 469.349 47.609C466.947 49.2372 464.906 51.3432 463.353 53.7955C461.801 56.2478 460.77 58.9938 460.327 61.8621C459.883 64.7303 460.035 67.6593 460.773 70.4661C461.512 73.2729 462.821 75.8974 464.62 78.1756C463.682 79.3698 462.874 80.6607 462.21 82.0262L477.239 89.8362L461.241 84.462C460.115 87.7895 459.836 91.3453 460.431 94.8075C461.025 98.2696 462.474 101.529 464.646 104.29C462.192 107.404 460.665 111.145 460.239 115.085C459.812 119.026 460.504 123.008 462.234 126.574C463.964 130.14 466.663 133.147 470.023 135.251C473.382 137.355 477.266 138.471 481.229 138.471C485.193 138.471 489.077 137.355 492.436 135.251C495.796 133.147 498.495 130.14 500.225 126.574C501.955 123.008 502.647 119.026 502.22 115.085C501.794 111.145 500.267 107.404 497.813 104.29C500.741 100.569 502.333 95.9708 502.333 91.2355C502.333 86.5002 500.741 81.9024 497.813 78.1808H497.808Z" fill="#6C63FF"/>
<path opacity="0.1" d="M460.1 91.2356C460.093 95.9719 461.686 100.572 464.619 104.29C462.166 107.404 460.639 111.145 460.212 115.086C459.786 119.026 460.477 123.008 462.208 126.574C463.938 130.14 466.637 133.147 469.996 135.251C473.356 137.355 477.24 138.471 481.203 138.471C485.167 138.471 489.051 137.355 492.41 135.251C495.769 133.147 498.469 130.14 500.199 126.574C501.929 123.008 502.621 119.026 502.194 115.086C501.768 111.145 500.24 107.404 497.787 104.29C500.627 100.699 460.1 88.8672 460.1 91.2356Z" fill="black"/>
</g>
<g opacity="0.1">
<path opacity="0.1" d="M31.9191 175.373C35.1763 175.373 37.8168 171.916 37.8168 167.651C37.8168 163.386 35.1763 159.929 31.9191 159.929C28.662 159.929 26.0215 163.386 26.0215 167.651C26.0215 171.916 28.662 175.373 31.9191 175.373Z" fill="#3F3D56"/>
<path opacity="0.1" d="M36.583 134.613C37.4057 133.176 37.8315 131.547 37.8164 129.892C37.8164 125.626 35.1733 122.17 31.9187 122.17C28.6641 122.17 26.0211 125.626 26.0211 129.892C26.0045 131.546 26.4284 133.176 27.2493 134.613C26.4437 136.055 26.0207 137.68 26.0207 139.331C26.0207 140.983 26.4437 142.608 27.2493 144.05C26.4437 145.492 26.0207 147.117 26.0207 148.769C26.0207 150.421 26.4437 152.045 27.2493 153.487C26.4267 154.924 26.0027 156.554 26.0211 158.209C26.0211 162.469 28.659 165.931 31.9187 165.931C35.1785 165.931 37.832 162.479 37.832 158.219C37.8485 156.564 37.4227 154.934 36.5985 153.498C37.407 152.057 37.8317 150.432 37.8317 148.779C37.8317 147.127 37.407 145.502 36.5985 144.06C37.407 142.619 37.8317 140.994 37.8317 139.342C37.8317 137.689 37.407 136.064 36.5985 134.623L36.583 134.613Z" fill="#3F3D56"/>
<path opacity="0.1" d="M31.9191 128.186C35.1763 128.186 37.8168 124.729 37.8168 120.465C37.8168 116.2 35.1763 112.743 31.9191 112.743C28.662 112.743 26.0215 116.2 26.0215 120.465C26.0215 124.729 28.662 128.186 31.9191 128.186Z" fill="#3F3D56"/>
<path opacity="0.1" d="M31.9191 118.749C35.1763 118.749 37.8168 115.292 37.8168 111.027C37.8168 106.763 35.1763 103.305 31.9191 103.305C28.662 103.305 26.0215 106.763 26.0215 111.027C26.0215 115.292 28.662 118.749 31.9191 118.749Z" fill="#3F3D56"/>
<path opacity="0.1" d="M9.84675 46.4381C9.04024 45.4123 8.30602 44.3318 7.64938 43.2042L23.1502 40.6596L6.37449 40.8099C4.7699 37.3096 3.89633 33.5187 3.80722 29.6692C3.71811 25.8196 4.41533 21.9924 5.85624 18.4216L28.3482 30.0874L7.61828 14.8405C9.55038 11.4625 12.1594 8.52009 15.2819 6.19762C18.4044 3.87515 21.973 2.22272 25.7639 1.34391C29.5549 0.465109 33.4865 0.378871 37.3124 1.09061C41.1382 1.80235 44.7758 3.29672 47.9971 5.48005C51.2184 7.66337 53.954 10.4886 56.0323 13.7786C58.1107 17.0686 59.487 20.7525 60.0751 24.5993C60.6631 28.4461 60.4502 32.3729 59.4497 36.1335C58.4491 39.8942 56.6825 43.4076 54.2606 46.4536C55.5171 48.0499 56.5979 49.777 57.4841 51.605L37.3554 62.0581L58.8108 54.8596C60.3149 59.3132 60.6855 64.0713 59.8893 68.7041C59.093 73.3368 57.155 77.6981 54.2503 81.3939C57.5288 85.5615 59.5685 90.5676 60.1359 95.8398C60.7034 101.112 59.7759 106.438 57.4593 111.207C55.1427 115.977 51.5307 119.999 47.0361 122.813C42.5416 125.626 37.346 127.119 32.0433 127.119C26.7407 127.119 21.5451 125.626 17.0505 122.813C12.556 119.999 8.9439 115.977 6.62734 111.207C4.31078 106.438 3.38321 101.112 3.95069 95.8398C4.51818 90.5676 6.55781 85.5615 9.83638 81.3939C5.91827 76.4136 3.78809 70.2606 3.78809 63.9238C3.78809 57.5869 5.91827 51.434 9.83638 46.4536L9.84675 46.4381Z" fill="#6C63FF"/>
<path opacity="0.1" d="M60.2984 63.9084C60.3086 70.2469 58.1774 76.403 54.2504 81.3785C57.529 85.5461 59.5686 90.5522 60.1361 95.8244C60.7036 101.097 59.776 106.422 57.4595 111.192C55.1429 115.962 51.5308 119.984 47.0363 122.797C42.5418 125.611 37.3461 127.103 32.0435 127.103C26.7408 127.103 21.5452 125.611 17.0507 122.797C12.5561 119.984 8.94407 115.962 6.6275 111.192C4.31094 106.422 3.38337 101.097 3.95086 95.8244C4.51834 90.5522 6.55798 85.5461 9.83655 81.3785C6.04815 76.5692 60.2984 60.7367 60.2984 63.9084Z" fill="black"/>
</g>
<g opacity="0.1">
<path opacity="0.1" d="M88.8488 174.528C91.2845 174.528 93.2591 171.946 93.2591 168.76C93.2591 165.575 91.2845 162.992 88.8488 162.992C86.413 162.992 84.4385 165.575 84.4385 168.76C84.4385 171.946 86.413 174.528 88.8488 174.528Z" fill="#3F3D56"/>
<path opacity="0.1" d="M92.3364 144.076C92.9495 143.004 93.2661 141.787 93.2537 140.552C93.2537 137.365 91.2843 134.779 88.8486 134.779C86.4128 134.779 84.4383 137.37 84.4383 140.552C84.4274 141.788 84.7458 143.004 85.3607 144.076C84.756 145.153 84.4384 146.368 84.4384 147.603C84.4384 148.838 84.756 150.052 85.3607 151.13C84.756 152.207 84.4384 153.421 84.4384 154.656C84.4384 155.891 84.756 157.106 85.3607 158.183C84.7458 159.255 84.4274 160.471 84.4383 161.707C84.4383 164.894 86.4128 167.48 88.8486 167.48C91.2843 167.48 93.2537 164.889 93.2537 161.707C93.2661 160.472 92.9495 159.255 92.3364 158.183C92.9363 157.104 93.2511 155.89 93.2511 154.656C93.2511 153.422 92.9363 152.208 92.3364 151.13C92.9363 150.051 93.2511 148.837 93.2511 147.603C93.2511 146.369 92.9363 145.155 92.3364 144.076Z" fill="#3F3D56"/>
<path opacity="0.1" d="M88.8488 139.267C91.2845 139.267 93.2591 136.684 93.2591 133.499C93.2591 130.313 91.2845 127.73 88.8488 127.73C86.413 127.73 84.4385 130.313 84.4385 133.499C84.4385 136.684 86.413 139.267 88.8488 139.267Z" fill="#3F3D56"/>
<path opacity="0.1" d="M88.8488 132.213C91.2845 132.213 93.2591 129.631 93.2591 126.445C93.2591 123.26 91.2845 120.677 88.8488 120.677C86.413 120.677 84.4385 123.26 84.4385 126.445C84.4385 129.631 86.413 132.213 88.8488 132.213Z" fill="#3F3D56"/>
<path opacity="0.1" d="M72.3476 78.1808C71.7442 77.4152 71.1952 76.6082 70.7047 75.7658L82.2876 73.8638L69.7615 73.9571C68.5599 71.3418 67.9043 68.5089 67.8348 65.6316C67.7653 62.7544 68.2833 59.8931 69.3573 57.2229L86.1641 65.945L70.6633 54.5435C72.1129 52.0291 74.0653 49.8404 76.3986 48.1142C78.7318 46.388 81.3958 45.1612 84.2243 44.5105C87.0528 43.8598 89.9851 43.7991 92.8381 44.3322C95.6912 44.8653 98.4037 45.9808 100.806 47.609C103.209 49.2372 105.25 51.3432 106.803 53.7955C108.355 56.2478 109.385 58.9938 109.829 61.8621C110.273 64.7303 110.121 67.6593 109.382 70.4661C108.644 73.2729 107.334 75.8974 105.536 78.1756C106.478 79.3673 107.286 80.6585 107.946 82.0262L92.9169 89.8362L108.946 84.4568C110.072 87.7843 110.35 91.3401 109.756 94.8023C109.161 98.2644 107.713 101.524 105.541 104.285C107.995 107.398 109.522 111.14 109.948 115.08C110.375 119.021 109.683 123.002 107.953 126.569C106.223 130.135 103.524 133.142 100.164 135.246C96.805 137.35 92.9212 138.466 88.9574 138.466C84.9937 138.466 81.1099 137.35 77.7506 135.246C74.3913 133.142 71.6921 130.135 69.9618 126.569C68.2315 123.002 67.5401 119.021 67.9666 115.08C68.3931 111.14 69.9203 107.398 72.3735 104.285C69.4456 100.563 67.8538 95.9656 67.8538 91.2303C67.8538 86.4951 69.4456 81.8972 72.3735 78.1756L72.3476 78.1808Z" fill="#6C63FF"/>
<path opacity="0.1" d="M110.055 91.2356C110.062 95.9719 108.47 100.572 105.536 104.29C107.989 107.404 109.517 111.145 109.943 115.086C110.37 119.026 109.678 123.008 107.948 126.574C106.218 130.14 103.518 133.147 100.159 135.251C96.7998 137.355 92.9161 138.471 88.9523 138.471C84.9885 138.471 81.1048 137.355 77.7455 135.251C74.3862 133.147 71.6869 130.14 69.9567 126.574C68.2264 123.008 67.535 119.026 67.9615 115.086C68.388 111.145 69.9152 107.404 72.3684 104.29C69.518 100.699 110.055 88.8672 110.055 91.2356Z" fill="black"/>
</g>
<path opacity="0.1" d="M284 261C440.849 261 568 258.985 568 256.5C568 254.015 440.849 252 284 252C127.151 252 0 254.015 0 256.5C0 258.985 127.151 261 284 261Z" fill="#6C63FF"/>
<path opacity="0.1" d="M284 299C440.849 299 568 296.761 568 294C568 291.239 440.849 289 284 289C127.151 289 0 291.239 0 294C0 296.761 127.151 299 284 299Z" fill="#6C63FF"/>
<path opacity="0.1" d="M284 182C440.849 182 568 179.985 568 177.5C568 175.015 440.849 173 284 173C127.151 173 0 175.015 0 177.5C0 179.985 127.151 182 284 182Z" fill="#6C63FF"/>
<path opacity="0.1" d="M284 222C440.849 222 568 219.761 568 217C568 214.239 440.849 212 284 212C127.151 212 0 214.239 0 217C0 219.761 127.151 222 284 222Z" fill="#6C63FF"/>
<path d="M404 176C432.719 176 456 152.719 456 124C456 95.2812 432.719 72 404 72C375.281 72 352 95.2812 352 124C352 152.719 375.281 176 404 176Z" fill="#E76F51"/>
<path d="M426.61 137.8C424.776 136.005 420.367 133.297 418.18 132.286C415.657 131.099 414.73 131.12 412.944 132.384C411.458 133.415 410.494 134.411 408.787 134.045C407.08 133.679 403.697 131.182 400.426 127.989C397.154 124.796 394.615 121.505 394.251 119.808C393.888 118.111 394.889 117.188 395.953 115.733C397.238 113.984 397.275 113.076 396.053 110.606C394.999 108.465 392.265 104.158 390.416 102.352C388.566 100.547 388.166 100.944 387.154 101.321C386.113 101.748 385.114 102.266 384.167 102.868C382.334 104.07 381.307 105.071 380.585 106.577C379.863 108.083 379.046 110.879 383.245 118.199C386.343 123.798 390.266 128.92 394.889 133.4C399.48 137.936 404.729 141.784 410.467 144.82C417.938 148.947 420.799 148.127 422.337 147.425C423.876 146.724 424.898 145.728 426.12 143.918C426.736 142.992 427.265 142.013 427.7 140.993C428.048 140.003 428.459 139.6 426.61 137.8Z" fill="white"/>
<path d="M285 255C313.719 255 337 231.719 337 203C337 174.281 313.719 151 285 151C256.281 151 233 174.281 233 203C233 231.719 256.281 255 285 255Z" fill="#E76F51"/>
<path d="M314.502 187.112L298.974 203.121C298.947 203.148 298.925 203.18 298.91 203.215C298.895 203.25 298.887 203.288 298.887 203.327C298.887 203.365 298.895 203.403 298.91 203.438C298.925 203.473 298.947 203.505 298.974 203.532L309.869 215.272C310.129 215.538 310.307 215.876 310.378 216.244C310.45 216.612 310.413 216.993 310.271 217.34C310.13 217.686 309.891 217.983 309.584 218.192C309.277 218.401 308.916 218.514 308.546 218.516C308.048 218.515 307.571 218.315 307.218 217.959L296.38 206.26C296.325 206.205 296.25 206.174 296.172 206.174C296.095 206.174 296.02 206.205 295.965 206.26L293.324 208.963C292.243 210.083 290.952 210.974 289.526 211.581C288.101 212.189 286.57 212.502 285.023 212.501C283.447 212.494 281.889 212.168 280.439 211.544C278.989 210.919 277.676 210.008 276.577 208.863L274.04 206.234C273.985 206.179 273.91 206.148 273.833 206.148C273.755 206.148 273.68 206.179 273.625 206.234L262.813 217.906C262.639 218.083 262.433 218.223 262.205 218.319C261.978 218.414 261.734 218.463 261.488 218.463C261.241 218.463 260.998 218.414 260.77 218.319C260.543 218.223 260.336 218.083 260.162 217.906C259.987 217.73 259.848 217.521 259.754 217.29C259.659 217.06 259.61 216.813 259.61 216.563C259.61 216.313 259.659 216.066 259.754 215.835C259.848 215.605 259.987 215.396 260.162 215.22L271.015 203.505C271.064 203.448 271.09 203.375 271.09 203.3C271.09 203.225 271.064 203.152 271.015 203.095L255.488 187.085C255.448 187.045 255.397 187.017 255.341 187.006C255.286 186.994 255.228 187 255.176 187.022C255.124 187.044 255.079 187.081 255.048 187.129C255.016 187.177 255 187.233 255 187.29V219.326C255.004 220.564 255.491 221.751 256.355 222.626C257.219 223.502 258.39 223.996 259.612 224H310.388C311.61 223.996 312.78 223.502 313.644 222.626C314.508 221.751 314.996 220.564 315 219.326V187.317C315.002 187.257 314.987 187.198 314.955 187.148C314.923 187.098 314.877 187.059 314.822 187.036C314.767 187.014 314.707 187.009 314.65 187.022C314.593 187.036 314.541 187.067 314.502 187.112Z" fill="white"/>
<path d="M284.979 208C286.022 208.01 287.057 207.811 288.021 207.416C288.985 207.021 289.86 206.437 290.593 205.7L313 183.022C312.205 182.367 311.206 182.006 310.173 182H259.827C258.794 182.003 257.794 182.365 257 183.022L279.412 205.7C280.139 206.433 281.006 207.015 281.962 207.41C282.918 207.805 283.944 208.005 284.979 208Z" fill="white"/>
<path d="M162 216C190.719 216 214 192.719 214 164C214 135.281 190.719 112 162 112C133.281 112 110 135.281 110 164C110 192.719 133.281 216 162 216Z" fill="#E76F51"/>
<path d="M161.995 139L141 187.056L142.96 189L162 180.668L181.04 189L183 187.056L161.995 139Z" fill="white"/>
<g opacity="0.1">
<path opacity="0.1" d="M395.19 253.426C395.19 253.426 390.039 253.286 388.484 253.007C388.484 253.271 388.484 253.426 388.484 253.426C388.08 253.831 395.615 254.038 395.615 254.038C395.718 254.047 395.815 254.087 395.895 254.152C395.62 253.426 395.19 253.426 395.19 253.426Z" fill="black"/>
<path opacity="0.1" d="M404.156 245.072C403.949 244.87 403.746 242.02 403.746 242.02C403.641 242.085 403.523 242.128 403.399 242.144C403.472 243.004 403.612 244.326 403.746 244.461C403.881 244.595 404.783 249.757 404.56 252.203C404.337 254.649 404.56 254.644 404.56 254.644C404.56 254.644 397.952 255.613 396.351 254.966C396.351 255.054 396.398 255.152 396.413 255.256C396.615 256.479 404.97 255.256 404.97 255.256C404.97 255.256 404.762 255.256 404.97 252.815C405.177 250.374 404.358 245.28 404.156 245.072Z" fill="black"/>
</g>
<path opacity="0.1" d="M404.026 72C393.739 71.9949 383.682 75.0409 375.127 80.7528C366.571 86.4646 359.902 94.5856 355.963 104.088C352.024 113.591 350.992 124.049 352.998 134.138C355.004 144.228 359.957 153.496 367.23 160.77C374.504 168.043 383.772 172.996 393.862 175.002C403.951 177.008 414.409 175.976 423.912 172.037C433.414 168.098 441.535 161.429 447.247 152.873C452.959 144.318 456.005 134.261 456 123.974C455.993 110.192 450.515 96.976 440.77 87.2305C431.024 77.4849 417.808 72.0069 404.026 72ZM404.026 169.042C395.112 169.042 386.399 166.399 378.987 161.447C371.576 156.495 365.799 149.456 362.388 141.221C358.977 132.986 358.085 123.924 359.824 115.182C361.563 106.439 365.855 98.4088 372.158 92.1058C378.461 85.8029 386.491 81.5106 395.234 79.7716C403.976 78.0326 413.038 78.9251 421.273 82.3362C429.508 85.7474 436.547 91.5239 441.499 98.9353C446.451 106.347 449.094 115.06 449.094 123.974C449.094 129.892 447.929 135.753 445.664 141.221C443.399 146.689 440.079 151.657 435.894 155.842C431.709 160.027 426.741 163.347 421.273 165.612C415.805 167.877 409.944 169.042 404.026 169.042Z" fill="#561100"/>
<path opacity="0.1" d="M284.526 151C274.338 150.995 264.377 154.041 255.904 159.753C247.431 165.465 240.826 173.586 236.925 183.088C233.024 192.591 232.002 203.049 233.988 213.138C235.975 223.228 240.88 232.496 248.084 239.77C255.288 247.043 264.467 251.996 274.459 254.002C284.452 256.008 294.809 254.976 304.22 251.037C313.632 247.098 321.674 240.429 327.331 231.873C332.988 223.318 336.005 213.261 336 202.974C335.993 189.192 330.568 175.976 320.916 166.23C311.264 156.485 298.175 151.007 284.526 151ZM284.526 248.042C275.698 248.042 267.068 245.399 259.728 240.447C252.388 235.495 246.667 228.456 243.288 220.221C239.91 211.986 239.026 202.924 240.748 194.182C242.471 185.439 246.722 177.409 252.964 171.106C259.206 164.803 267.16 160.511 275.818 158.772C284.476 157.033 293.451 157.925 301.607 161.336C309.763 164.747 316.734 170.524 321.638 177.935C326.543 185.347 329.161 194.06 329.161 202.974C329.161 214.927 324.458 226.39 316.087 234.842C307.717 243.294 296.364 248.042 284.526 248.042Z" fill="#561100"/>
<path opacity="0.1" d="M162.026 112C151.74 111.995 141.684 115.04 133.129 120.751C124.575 126.462 117.905 134.581 113.966 144.082C110.026 153.584 108.993 164.04 110.996 174.129C113 184.217 117.95 193.485 125.221 200.76C132.493 208.035 141.758 212.99 151.846 214.999C161.933 217.007 172.39 215.979 181.894 212.044C191.397 208.109 199.52 201.444 205.235 192.892C210.95 184.34 214 174.286 214 164C214 150.213 208.525 136.991 198.779 127.24C189.032 117.489 175.813 112.007 162.026 112ZM162.026 209.042C153.111 209.042 144.397 206.399 136.985 201.445C129.573 196.492 123.796 189.452 120.386 181.215C116.975 172.978 116.084 163.915 117.826 155.172C119.567 146.429 123.862 138.399 130.167 132.097C136.473 125.795 144.505 121.504 153.25 119.768C161.994 118.032 171.056 118.929 179.291 122.344C187.526 125.759 194.563 131.539 199.512 138.954C204.461 146.369 207.1 155.085 207.094 164C207.093 175.952 202.344 187.414 193.892 195.865C185.441 204.316 173.978 209.063 162.026 209.063V209.042Z" fill="#561100"/>
</svg>
