<svg width="29" height="29" viewBox="0 0 29 29" fill="none" xmlns="http://www.w3.org/2000/svg">
<g clip-path="url(#clip0)">
<path d="M0.673955 29C0.511113 29 0.352696 28.9356 0.235211 28.8168C0.0803345 28.6602 0.0205963 28.4327 0.0787858 28.2201L1.96408 21.3356C0.790334 19.2131 0.171491 16.8121 0.172375 14.3748C0.175694 6.4484 6.62609 0 14.5518 0C18.3961 0.00154877 22.0082 1.49899 24.7232 4.21597C27.4378 6.93317 28.9321 10.5451 28.931 14.3863C28.9275 22.3129 22.4771 28.7617 14.5518 28.7617C14.5518 28.7617 14.5458 28.7617 14.5456 28.7617C12.2306 28.7608 9.93558 28.1966 7.89209 27.128L0.83038 28.9799C0.778607 28.9934 0.725949 29 0.673955 29Z" fill="#E5E5E5"/>
<path d="M0.673435 28.3829L2.62577 21.2535C1.42149 19.1669 0.788044 16.7999 0.788929 14.375C0.792026 6.7889 6.96541 0.617065 14.5513 0.617065C18.2325 0.618614 21.6878 2.05145 24.2862 4.65205C26.8843 7.25265 28.3147 10.7095 28.3134 14.386C28.3101 21.9719 22.1358 28.1446 14.5513 28.1446C14.5508 28.1446 14.5515 28.1446 14.5513 28.1446H14.5453C12.2421 28.1437 9.97909 27.5661 7.96901 26.4697L0.673435 28.3829ZM8.30687 23.9791L8.72481 24.2267C10.4807 25.2688 12.4938 25.8199 14.5468 25.821H14.5513C20.8556 25.821 25.9869 20.6906 25.9896 14.3852C25.9907 11.3294 24.8021 8.45604 22.6425 6.29462C20.4826 4.13321 17.611 2.94221 14.5555 2.94088C8.24602 2.94088 3.11496 8.07062 3.11252 14.3759C3.11164 16.5366 3.7161 18.6407 4.8613 20.4616L5.13344 20.8944L3.97762 25.1141L8.30687 23.9791Z" fill="white"/>
<path d="M1.1523 27.9026L3.03715 21.0197C1.87425 19.0054 1.26293 16.7201 1.26359 14.3795C1.26647 7.05601 7.22635 1.0979 14.5491 1.0979C18.1033 1.09945 21.4392 2.48272 23.9471 4.99327C26.4556 7.50382 27.8362 10.841 27.8349 14.3899C27.8318 21.7135 21.8717 27.6723 14.5498 27.6723C14.5491 27.6723 14.55 27.6723 14.5498 27.6723H14.5438C12.3205 27.6714 10.1356 27.1134 8.19521 26.0558L1.1523 27.9026Z" fill="#64B161"/>
<path d="M0.673435 28.3829L2.62577 21.2535C1.42149 19.1669 0.788044 16.7999 0.788929 14.375C0.792026 6.7889 6.96541 0.617065 14.5513 0.617065C18.2325 0.618614 21.6878 2.05145 24.2862 4.65205C26.8843 7.25265 28.3147 10.7095 28.3134 14.386C28.3101 21.9719 22.1358 28.1446 14.5513 28.1446C14.5508 28.1446 14.5515 28.1446 14.5513 28.1446H14.5453C12.2421 28.1437 9.97909 27.5661 7.96901 26.4697L0.673435 28.3829ZM8.30687 23.9791L8.72481 24.2267C10.4807 25.2688 12.4938 25.8199 14.5468 25.821H14.5513C20.8556 25.821 25.9869 20.6906 25.9896 14.3852C25.9907 11.3294 24.8021 8.45604 22.6425 6.29462C20.4826 4.13321 17.611 2.94221 14.5555 2.94088C8.24602 2.94088 3.11496 8.07062 3.11252 14.3759C3.11164 16.5366 3.7161 18.6407 4.8613 20.4616L5.13344 20.8944L3.97762 25.1141L8.30687 23.9791Z" fill="white"/>
<path fill-rule="evenodd" clip-rule="evenodd" d="M11.1119 8.62337C10.8543 8.05077 10.5831 8.03926 10.3379 8.02931C10.1375 8.02068 9.90805 8.02112 9.67905 8.02112C9.44984 8.02112 9.07725 8.10741 8.76218 8.45146C8.4469 8.79551 7.55835 9.62741 7.55835 11.3193C7.55835 13.0115 8.79073 14.6463 8.96264 14.876C9.13455 15.1054 11.3415 18.6884 14.8367 20.0668C17.7415 21.2124 18.3325 20.9845 18.963 20.9272C19.5936 20.8699 20.9974 20.0953 21.284 19.2924C21.5707 18.4895 21.5707 17.8014 21.4846 17.6573C21.3986 17.5142 21.1694 17.4281 20.8255 17.2562C20.4817 17.0843 18.7911 16.2522 18.4758 16.1375C18.1605 16.0227 17.9313 15.9656 17.7021 16.3099C17.4727 16.6537 16.8142 17.4281 16.6135 17.6573C16.4129 17.8872 16.2122 17.916 15.8684 17.7438C15.5245 17.5715 14.417 17.2086 13.1032 16.0371C12.081 15.1258 11.3907 14 11.19 13.6558C10.9895 13.3119 11.1867 13.142 11.3411 12.9542C11.6192 12.6159 12.0858 12.0076 12.2004 11.7784C12.3151 11.5488 12.2578 11.3481 12.1719 11.176C12.0858 11.004 11.4174 9.3035 11.1119 8.62337Z" fill="white"/>
</g>
<defs>
<clipPath id="clip0">
<rect width="29" height="29" fill="white"/>
</clipPath>
</defs>
</svg>
